%TF.GenerationSoftware,KiCad,Pcbnew,7.0.5-0*%
%TF.CreationDate,2024-11-24T15:49:56-05:00*%
%TF.ProjectId,PCB-diffDC,5043422d-6469-4666-9644-432e6b696361,rev?*%
%TF.SameCoordinates,Original*%
%TF.FileFunction,Legend,Top*%
%TF.FilePolarity,Positive*%
%FSLAX46Y46*%
G04 Gerber Fmt 4.6, Leading zero omitted, Abs format (unit mm)*
G04 Created by KiCad (PCBNEW 7.0.5-0) date 2024-11-24 15:49:56*
%MOMM*%
%LPD*%
G01*
G04 APERTURE LIST*
%ADD10C,0.300000*%
%ADD11C,0.150000*%
%ADD12C,0.050000*%
%ADD13C,0.040000*%
%ADD14C,0.254000*%
%ADD15C,0.020000*%
%ADD16C,0.100000*%
%ADD17C,0.120000*%
%ADD18C,0.127000*%
%ADD19C,0.200000*%
%ADD20C,0.350000*%
G04 APERTURE END LIST*
D10*
X105487742Y-37593082D02*
X105487742Y-38307368D01*
X105059171Y-37450225D02*
X106559171Y-37950225D01*
X106559171Y-37950225D02*
X105059171Y-38450225D01*
D11*
%TO.C,R4*%
X110773333Y-50144819D02*
X110440000Y-49668628D01*
X110201905Y-50144819D02*
X110201905Y-49144819D01*
X110201905Y-49144819D02*
X110582857Y-49144819D01*
X110582857Y-49144819D02*
X110678095Y-49192438D01*
X110678095Y-49192438D02*
X110725714Y-49240057D01*
X110725714Y-49240057D02*
X110773333Y-49335295D01*
X110773333Y-49335295D02*
X110773333Y-49478152D01*
X110773333Y-49478152D02*
X110725714Y-49573390D01*
X110725714Y-49573390D02*
X110678095Y-49621009D01*
X110678095Y-49621009D02*
X110582857Y-49668628D01*
X110582857Y-49668628D02*
X110201905Y-49668628D01*
X111630476Y-49478152D02*
X111630476Y-50144819D01*
X111392381Y-49097200D02*
X111154286Y-49811485D01*
X111154286Y-49811485D02*
X111773333Y-49811485D01*
%TO.C,C4*%
X93013333Y-61419580D02*
X92965714Y-61467200D01*
X92965714Y-61467200D02*
X92822857Y-61514819D01*
X92822857Y-61514819D02*
X92727619Y-61514819D01*
X92727619Y-61514819D02*
X92584762Y-61467200D01*
X92584762Y-61467200D02*
X92489524Y-61371961D01*
X92489524Y-61371961D02*
X92441905Y-61276723D01*
X92441905Y-61276723D02*
X92394286Y-61086247D01*
X92394286Y-61086247D02*
X92394286Y-60943390D01*
X92394286Y-60943390D02*
X92441905Y-60752914D01*
X92441905Y-60752914D02*
X92489524Y-60657676D01*
X92489524Y-60657676D02*
X92584762Y-60562438D01*
X92584762Y-60562438D02*
X92727619Y-60514819D01*
X92727619Y-60514819D02*
X92822857Y-60514819D01*
X92822857Y-60514819D02*
X92965714Y-60562438D01*
X92965714Y-60562438D02*
X93013333Y-60610057D01*
X93870476Y-60848152D02*
X93870476Y-61514819D01*
X93632381Y-60467200D02*
X93394286Y-61181485D01*
X93394286Y-61181485D02*
X94013333Y-61181485D01*
%TO.C,L1*%
X102795583Y-57073319D02*
X102319393Y-57073319D01*
X102319393Y-57073319D02*
X102319393Y-56073319D01*
X103652726Y-57073319D02*
X103081298Y-57073319D01*
X103367012Y-57073319D02*
X103367012Y-56073319D01*
X103367012Y-56073319D02*
X103271774Y-56216176D01*
X103271774Y-56216176D02*
X103176536Y-56311414D01*
X103176536Y-56311414D02*
X103081298Y-56359033D01*
%TO.C,D17*%
X130635714Y-74194819D02*
X130635714Y-73194819D01*
X130635714Y-73194819D02*
X130873809Y-73194819D01*
X130873809Y-73194819D02*
X131016666Y-73242438D01*
X131016666Y-73242438D02*
X131111904Y-73337676D01*
X131111904Y-73337676D02*
X131159523Y-73432914D01*
X131159523Y-73432914D02*
X131207142Y-73623390D01*
X131207142Y-73623390D02*
X131207142Y-73766247D01*
X131207142Y-73766247D02*
X131159523Y-73956723D01*
X131159523Y-73956723D02*
X131111904Y-74051961D01*
X131111904Y-74051961D02*
X131016666Y-74147200D01*
X131016666Y-74147200D02*
X130873809Y-74194819D01*
X130873809Y-74194819D02*
X130635714Y-74194819D01*
X132159523Y-74194819D02*
X131588095Y-74194819D01*
X131873809Y-74194819D02*
X131873809Y-73194819D01*
X131873809Y-73194819D02*
X131778571Y-73337676D01*
X131778571Y-73337676D02*
X131683333Y-73432914D01*
X131683333Y-73432914D02*
X131588095Y-73480533D01*
X132492857Y-73194819D02*
X133159523Y-73194819D01*
X133159523Y-73194819D02*
X132730952Y-74194819D01*
%TO.C,U5*%
X104218095Y-49514819D02*
X104218095Y-50324342D01*
X104218095Y-50324342D02*
X104265714Y-50419580D01*
X104265714Y-50419580D02*
X104313333Y-50467200D01*
X104313333Y-50467200D02*
X104408571Y-50514819D01*
X104408571Y-50514819D02*
X104599047Y-50514819D01*
X104599047Y-50514819D02*
X104694285Y-50467200D01*
X104694285Y-50467200D02*
X104741904Y-50419580D01*
X104741904Y-50419580D02*
X104789523Y-50324342D01*
X104789523Y-50324342D02*
X104789523Y-49514819D01*
X105741904Y-49514819D02*
X105265714Y-49514819D01*
X105265714Y-49514819D02*
X105218095Y-49991009D01*
X105218095Y-49991009D02*
X105265714Y-49943390D01*
X105265714Y-49943390D02*
X105360952Y-49895771D01*
X105360952Y-49895771D02*
X105599047Y-49895771D01*
X105599047Y-49895771D02*
X105694285Y-49943390D01*
X105694285Y-49943390D02*
X105741904Y-49991009D01*
X105741904Y-49991009D02*
X105789523Y-50086247D01*
X105789523Y-50086247D02*
X105789523Y-50324342D01*
X105789523Y-50324342D02*
X105741904Y-50419580D01*
X105741904Y-50419580D02*
X105694285Y-50467200D01*
X105694285Y-50467200D02*
X105599047Y-50514819D01*
X105599047Y-50514819D02*
X105360952Y-50514819D01*
X105360952Y-50514819D02*
X105265714Y-50467200D01*
X105265714Y-50467200D02*
X105218095Y-50419580D01*
D12*
%TO.C,R9*%
X128529916Y-73403423D02*
X128463250Y-73308185D01*
X128415631Y-73403423D02*
X128415631Y-73203423D01*
X128415631Y-73203423D02*
X128491821Y-73203423D01*
X128491821Y-73203423D02*
X128510869Y-73212947D01*
X128510869Y-73212947D02*
X128520392Y-73222471D01*
X128520392Y-73222471D02*
X128529916Y-73241519D01*
X128529916Y-73241519D02*
X128529916Y-73270090D01*
X128529916Y-73270090D02*
X128520392Y-73289138D01*
X128520392Y-73289138D02*
X128510869Y-73298661D01*
X128510869Y-73298661D02*
X128491821Y-73308185D01*
X128491821Y-73308185D02*
X128415631Y-73308185D01*
X128625154Y-73403423D02*
X128663250Y-73403423D01*
X128663250Y-73403423D02*
X128682297Y-73393900D01*
X128682297Y-73393900D02*
X128691821Y-73384376D01*
X128691821Y-73384376D02*
X128710869Y-73355804D01*
X128710869Y-73355804D02*
X128720392Y-73317709D01*
X128720392Y-73317709D02*
X128720392Y-73241519D01*
X128720392Y-73241519D02*
X128710869Y-73222471D01*
X128710869Y-73222471D02*
X128701345Y-73212947D01*
X128701345Y-73212947D02*
X128682297Y-73203423D01*
X128682297Y-73203423D02*
X128644202Y-73203423D01*
X128644202Y-73203423D02*
X128625154Y-73212947D01*
X128625154Y-73212947D02*
X128615631Y-73222471D01*
X128615631Y-73222471D02*
X128606107Y-73241519D01*
X128606107Y-73241519D02*
X128606107Y-73289138D01*
X128606107Y-73289138D02*
X128615631Y-73308185D01*
X128615631Y-73308185D02*
X128625154Y-73317709D01*
X128625154Y-73317709D02*
X128644202Y-73327233D01*
X128644202Y-73327233D02*
X128682297Y-73327233D01*
X128682297Y-73327233D02*
X128701345Y-73317709D01*
X128701345Y-73317709D02*
X128710869Y-73308185D01*
X128710869Y-73308185D02*
X128720392Y-73289138D01*
D11*
%TO.C,C7*%
X120038330Y-67156666D02*
X120085950Y-67204285D01*
X120085950Y-67204285D02*
X120133569Y-67347142D01*
X120133569Y-67347142D02*
X120133569Y-67442380D01*
X120133569Y-67442380D02*
X120085950Y-67585237D01*
X120085950Y-67585237D02*
X119990711Y-67680475D01*
X119990711Y-67680475D02*
X119895473Y-67728094D01*
X119895473Y-67728094D02*
X119704997Y-67775713D01*
X119704997Y-67775713D02*
X119562140Y-67775713D01*
X119562140Y-67775713D02*
X119371664Y-67728094D01*
X119371664Y-67728094D02*
X119276426Y-67680475D01*
X119276426Y-67680475D02*
X119181188Y-67585237D01*
X119181188Y-67585237D02*
X119133569Y-67442380D01*
X119133569Y-67442380D02*
X119133569Y-67347142D01*
X119133569Y-67347142D02*
X119181188Y-67204285D01*
X119181188Y-67204285D02*
X119228807Y-67156666D01*
X119133569Y-66823332D02*
X119133569Y-66156666D01*
X119133569Y-66156666D02*
X120133569Y-66585237D01*
%TO.C,D2*%
X137294819Y-48868094D02*
X136294819Y-48868094D01*
X136294819Y-48868094D02*
X136294819Y-48629999D01*
X136294819Y-48629999D02*
X136342438Y-48487142D01*
X136342438Y-48487142D02*
X136437676Y-48391904D01*
X136437676Y-48391904D02*
X136532914Y-48344285D01*
X136532914Y-48344285D02*
X136723390Y-48296666D01*
X136723390Y-48296666D02*
X136866247Y-48296666D01*
X136866247Y-48296666D02*
X137056723Y-48344285D01*
X137056723Y-48344285D02*
X137151961Y-48391904D01*
X137151961Y-48391904D02*
X137247200Y-48487142D01*
X137247200Y-48487142D02*
X137294819Y-48629999D01*
X137294819Y-48629999D02*
X137294819Y-48868094D01*
X136390057Y-47915713D02*
X136342438Y-47868094D01*
X136342438Y-47868094D02*
X136294819Y-47772856D01*
X136294819Y-47772856D02*
X136294819Y-47534761D01*
X136294819Y-47534761D02*
X136342438Y-47439523D01*
X136342438Y-47439523D02*
X136390057Y-47391904D01*
X136390057Y-47391904D02*
X136485295Y-47344285D01*
X136485295Y-47344285D02*
X136580533Y-47344285D01*
X136580533Y-47344285D02*
X136723390Y-47391904D01*
X136723390Y-47391904D02*
X137294819Y-47963332D01*
X137294819Y-47963332D02*
X137294819Y-47344285D01*
%TO.C,R2*%
X119002083Y-85484819D02*
X118668750Y-85008628D01*
X118430655Y-85484819D02*
X118430655Y-84484819D01*
X118430655Y-84484819D02*
X118811607Y-84484819D01*
X118811607Y-84484819D02*
X118906845Y-84532438D01*
X118906845Y-84532438D02*
X118954464Y-84580057D01*
X118954464Y-84580057D02*
X119002083Y-84675295D01*
X119002083Y-84675295D02*
X119002083Y-84818152D01*
X119002083Y-84818152D02*
X118954464Y-84913390D01*
X118954464Y-84913390D02*
X118906845Y-84961009D01*
X118906845Y-84961009D02*
X118811607Y-85008628D01*
X118811607Y-85008628D02*
X118430655Y-85008628D01*
X119383036Y-84580057D02*
X119430655Y-84532438D01*
X119430655Y-84532438D02*
X119525893Y-84484819D01*
X119525893Y-84484819D02*
X119763988Y-84484819D01*
X119763988Y-84484819D02*
X119859226Y-84532438D01*
X119859226Y-84532438D02*
X119906845Y-84580057D01*
X119906845Y-84580057D02*
X119954464Y-84675295D01*
X119954464Y-84675295D02*
X119954464Y-84770533D01*
X119954464Y-84770533D02*
X119906845Y-84913390D01*
X119906845Y-84913390D02*
X119335417Y-85484819D01*
X119335417Y-85484819D02*
X119954464Y-85484819D01*
%TO.C,C9*%
X91631830Y-68632666D02*
X91679450Y-68680285D01*
X91679450Y-68680285D02*
X91727069Y-68823142D01*
X91727069Y-68823142D02*
X91727069Y-68918380D01*
X91727069Y-68918380D02*
X91679450Y-69061237D01*
X91679450Y-69061237D02*
X91584211Y-69156475D01*
X91584211Y-69156475D02*
X91488973Y-69204094D01*
X91488973Y-69204094D02*
X91298497Y-69251713D01*
X91298497Y-69251713D02*
X91155640Y-69251713D01*
X91155640Y-69251713D02*
X90965164Y-69204094D01*
X90965164Y-69204094D02*
X90869926Y-69156475D01*
X90869926Y-69156475D02*
X90774688Y-69061237D01*
X90774688Y-69061237D02*
X90727069Y-68918380D01*
X90727069Y-68918380D02*
X90727069Y-68823142D01*
X90727069Y-68823142D02*
X90774688Y-68680285D01*
X90774688Y-68680285D02*
X90822307Y-68632666D01*
X91727069Y-68156475D02*
X91727069Y-67965999D01*
X91727069Y-67965999D02*
X91679450Y-67870761D01*
X91679450Y-67870761D02*
X91631830Y-67823142D01*
X91631830Y-67823142D02*
X91488973Y-67727904D01*
X91488973Y-67727904D02*
X91298497Y-67680285D01*
X91298497Y-67680285D02*
X90917545Y-67680285D01*
X90917545Y-67680285D02*
X90822307Y-67727904D01*
X90822307Y-67727904D02*
X90774688Y-67775523D01*
X90774688Y-67775523D02*
X90727069Y-67870761D01*
X90727069Y-67870761D02*
X90727069Y-68061237D01*
X90727069Y-68061237D02*
X90774688Y-68156475D01*
X90774688Y-68156475D02*
X90822307Y-68204094D01*
X90822307Y-68204094D02*
X90917545Y-68251713D01*
X90917545Y-68251713D02*
X91155640Y-68251713D01*
X91155640Y-68251713D02*
X91250878Y-68204094D01*
X91250878Y-68204094D02*
X91298497Y-68156475D01*
X91298497Y-68156475D02*
X91346116Y-68061237D01*
X91346116Y-68061237D02*
X91346116Y-67870761D01*
X91346116Y-67870761D02*
X91298497Y-67775523D01*
X91298497Y-67775523D02*
X91250878Y-67727904D01*
X91250878Y-67727904D02*
X91155640Y-67680285D01*
%TO.C,J6*%
X125305416Y-42306819D02*
X125305416Y-43021104D01*
X125305416Y-43021104D02*
X125257797Y-43163961D01*
X125257797Y-43163961D02*
X125162559Y-43259200D01*
X125162559Y-43259200D02*
X125019702Y-43306819D01*
X125019702Y-43306819D02*
X124924464Y-43306819D01*
X126210178Y-42306819D02*
X126019702Y-42306819D01*
X126019702Y-42306819D02*
X125924464Y-42354438D01*
X125924464Y-42354438D02*
X125876845Y-42402057D01*
X125876845Y-42402057D02*
X125781607Y-42544914D01*
X125781607Y-42544914D02*
X125733988Y-42735390D01*
X125733988Y-42735390D02*
X125733988Y-43116342D01*
X125733988Y-43116342D02*
X125781607Y-43211580D01*
X125781607Y-43211580D02*
X125829226Y-43259200D01*
X125829226Y-43259200D02*
X125924464Y-43306819D01*
X125924464Y-43306819D02*
X126114940Y-43306819D01*
X126114940Y-43306819D02*
X126210178Y-43259200D01*
X126210178Y-43259200D02*
X126257797Y-43211580D01*
X126257797Y-43211580D02*
X126305416Y-43116342D01*
X126305416Y-43116342D02*
X126305416Y-42878247D01*
X126305416Y-42878247D02*
X126257797Y-42783009D01*
X126257797Y-42783009D02*
X126210178Y-42735390D01*
X126210178Y-42735390D02*
X126114940Y-42687771D01*
X126114940Y-42687771D02*
X125924464Y-42687771D01*
X125924464Y-42687771D02*
X125829226Y-42735390D01*
X125829226Y-42735390D02*
X125781607Y-42783009D01*
X125781607Y-42783009D02*
X125733988Y-42878247D01*
D13*
%TO.C,R1*%
X116103474Y-82504205D02*
X116003474Y-82361348D01*
X115932045Y-82504205D02*
X115932045Y-82204205D01*
X115932045Y-82204205D02*
X116046331Y-82204205D01*
X116046331Y-82204205D02*
X116074902Y-82218491D01*
X116074902Y-82218491D02*
X116089188Y-82232777D01*
X116089188Y-82232777D02*
X116103474Y-82261348D01*
X116103474Y-82261348D02*
X116103474Y-82304205D01*
X116103474Y-82304205D02*
X116089188Y-82332777D01*
X116089188Y-82332777D02*
X116074902Y-82347062D01*
X116074902Y-82347062D02*
X116046331Y-82361348D01*
X116046331Y-82361348D02*
X115932045Y-82361348D01*
X116389188Y-82504205D02*
X116217759Y-82504205D01*
X116303474Y-82504205D02*
X116303474Y-82204205D01*
X116303474Y-82204205D02*
X116274902Y-82247062D01*
X116274902Y-82247062D02*
X116246331Y-82275634D01*
X116246331Y-82275634D02*
X116217759Y-82289920D01*
D11*
%TO.C,U2*%
X133546845Y-64782319D02*
X133546845Y-65591842D01*
X133546845Y-65591842D02*
X133594464Y-65687080D01*
X133594464Y-65687080D02*
X133642083Y-65734700D01*
X133642083Y-65734700D02*
X133737321Y-65782319D01*
X133737321Y-65782319D02*
X133927797Y-65782319D01*
X133927797Y-65782319D02*
X134023035Y-65734700D01*
X134023035Y-65734700D02*
X134070654Y-65687080D01*
X134070654Y-65687080D02*
X134118273Y-65591842D01*
X134118273Y-65591842D02*
X134118273Y-64782319D01*
X134546845Y-64877557D02*
X134594464Y-64829938D01*
X134594464Y-64829938D02*
X134689702Y-64782319D01*
X134689702Y-64782319D02*
X134927797Y-64782319D01*
X134927797Y-64782319D02*
X135023035Y-64829938D01*
X135023035Y-64829938D02*
X135070654Y-64877557D01*
X135070654Y-64877557D02*
X135118273Y-64972795D01*
X135118273Y-64972795D02*
X135118273Y-65068033D01*
X135118273Y-65068033D02*
X135070654Y-65210890D01*
X135070654Y-65210890D02*
X134499226Y-65782319D01*
X134499226Y-65782319D02*
X135118273Y-65782319D01*
D12*
%TO.C,C8*%
X124455416Y-76331090D02*
X124431607Y-76354900D01*
X124431607Y-76354900D02*
X124360178Y-76378709D01*
X124360178Y-76378709D02*
X124312559Y-76378709D01*
X124312559Y-76378709D02*
X124241131Y-76354900D01*
X124241131Y-76354900D02*
X124193512Y-76307280D01*
X124193512Y-76307280D02*
X124169702Y-76259661D01*
X124169702Y-76259661D02*
X124145893Y-76164423D01*
X124145893Y-76164423D02*
X124145893Y-76092995D01*
X124145893Y-76092995D02*
X124169702Y-75997757D01*
X124169702Y-75997757D02*
X124193512Y-75950138D01*
X124193512Y-75950138D02*
X124241131Y-75902519D01*
X124241131Y-75902519D02*
X124312559Y-75878709D01*
X124312559Y-75878709D02*
X124360178Y-75878709D01*
X124360178Y-75878709D02*
X124431607Y-75902519D01*
X124431607Y-75902519D02*
X124455416Y-75926328D01*
X124741131Y-76092995D02*
X124693512Y-76069185D01*
X124693512Y-76069185D02*
X124669702Y-76045376D01*
X124669702Y-76045376D02*
X124645893Y-75997757D01*
X124645893Y-75997757D02*
X124645893Y-75973947D01*
X124645893Y-75973947D02*
X124669702Y-75926328D01*
X124669702Y-75926328D02*
X124693512Y-75902519D01*
X124693512Y-75902519D02*
X124741131Y-75878709D01*
X124741131Y-75878709D02*
X124836369Y-75878709D01*
X124836369Y-75878709D02*
X124883988Y-75902519D01*
X124883988Y-75902519D02*
X124907797Y-75926328D01*
X124907797Y-75926328D02*
X124931607Y-75973947D01*
X124931607Y-75973947D02*
X124931607Y-75997757D01*
X124931607Y-75997757D02*
X124907797Y-76045376D01*
X124907797Y-76045376D02*
X124883988Y-76069185D01*
X124883988Y-76069185D02*
X124836369Y-76092995D01*
X124836369Y-76092995D02*
X124741131Y-76092995D01*
X124741131Y-76092995D02*
X124693512Y-76116804D01*
X124693512Y-76116804D02*
X124669702Y-76140614D01*
X124669702Y-76140614D02*
X124645893Y-76188233D01*
X124645893Y-76188233D02*
X124645893Y-76283471D01*
X124645893Y-76283471D02*
X124669702Y-76331090D01*
X124669702Y-76331090D02*
X124693512Y-76354900D01*
X124693512Y-76354900D02*
X124741131Y-76378709D01*
X124741131Y-76378709D02*
X124836369Y-76378709D01*
X124836369Y-76378709D02*
X124883988Y-76354900D01*
X124883988Y-76354900D02*
X124907797Y-76331090D01*
X124907797Y-76331090D02*
X124931607Y-76283471D01*
X124931607Y-76283471D02*
X124931607Y-76188233D01*
X124931607Y-76188233D02*
X124907797Y-76140614D01*
X124907797Y-76140614D02*
X124883988Y-76116804D01*
X124883988Y-76116804D02*
X124836369Y-76092995D01*
D11*
%TO.C,J9*%
X113665416Y-87464819D02*
X113665416Y-88179104D01*
X113665416Y-88179104D02*
X113617797Y-88321961D01*
X113617797Y-88321961D02*
X113522559Y-88417200D01*
X113522559Y-88417200D02*
X113379702Y-88464819D01*
X113379702Y-88464819D02*
X113284464Y-88464819D01*
X114189226Y-88464819D02*
X114379702Y-88464819D01*
X114379702Y-88464819D02*
X114474940Y-88417200D01*
X114474940Y-88417200D02*
X114522559Y-88369580D01*
X114522559Y-88369580D02*
X114617797Y-88226723D01*
X114617797Y-88226723D02*
X114665416Y-88036247D01*
X114665416Y-88036247D02*
X114665416Y-87655295D01*
X114665416Y-87655295D02*
X114617797Y-87560057D01*
X114617797Y-87560057D02*
X114570178Y-87512438D01*
X114570178Y-87512438D02*
X114474940Y-87464819D01*
X114474940Y-87464819D02*
X114284464Y-87464819D01*
X114284464Y-87464819D02*
X114189226Y-87512438D01*
X114189226Y-87512438D02*
X114141607Y-87560057D01*
X114141607Y-87560057D02*
X114093988Y-87655295D01*
X114093988Y-87655295D02*
X114093988Y-87893390D01*
X114093988Y-87893390D02*
X114141607Y-87988628D01*
X114141607Y-87988628D02*
X114189226Y-88036247D01*
X114189226Y-88036247D02*
X114284464Y-88083866D01*
X114284464Y-88083866D02*
X114474940Y-88083866D01*
X114474940Y-88083866D02*
X114570178Y-88036247D01*
X114570178Y-88036247D02*
X114617797Y-87988628D01*
X114617797Y-87988628D02*
X114665416Y-87893390D01*
%TO.C,J3*%
X122875416Y-45484819D02*
X122875416Y-46199104D01*
X122875416Y-46199104D02*
X122827797Y-46341961D01*
X122827797Y-46341961D02*
X122732559Y-46437200D01*
X122732559Y-46437200D02*
X122589702Y-46484819D01*
X122589702Y-46484819D02*
X122494464Y-46484819D01*
X123256369Y-45484819D02*
X123875416Y-45484819D01*
X123875416Y-45484819D02*
X123542083Y-45865771D01*
X123542083Y-45865771D02*
X123684940Y-45865771D01*
X123684940Y-45865771D02*
X123780178Y-45913390D01*
X123780178Y-45913390D02*
X123827797Y-45961009D01*
X123827797Y-45961009D02*
X123875416Y-46056247D01*
X123875416Y-46056247D02*
X123875416Y-46294342D01*
X123875416Y-46294342D02*
X123827797Y-46389580D01*
X123827797Y-46389580D02*
X123780178Y-46437200D01*
X123780178Y-46437200D02*
X123684940Y-46484819D01*
X123684940Y-46484819D02*
X123399226Y-46484819D01*
X123399226Y-46484819D02*
X123303988Y-46437200D01*
X123303988Y-46437200D02*
X123256369Y-46389580D01*
D13*
%TO.C,R8*%
X113720416Y-77015443D02*
X113653750Y-76920205D01*
X113606131Y-77015443D02*
X113606131Y-76815443D01*
X113606131Y-76815443D02*
X113682321Y-76815443D01*
X113682321Y-76815443D02*
X113701369Y-76824967D01*
X113701369Y-76824967D02*
X113710892Y-76834491D01*
X113710892Y-76834491D02*
X113720416Y-76853539D01*
X113720416Y-76853539D02*
X113720416Y-76882110D01*
X113720416Y-76882110D02*
X113710892Y-76901158D01*
X113710892Y-76901158D02*
X113701369Y-76910681D01*
X113701369Y-76910681D02*
X113682321Y-76920205D01*
X113682321Y-76920205D02*
X113606131Y-76920205D01*
X113834702Y-76901158D02*
X113815654Y-76891634D01*
X113815654Y-76891634D02*
X113806131Y-76882110D01*
X113806131Y-76882110D02*
X113796607Y-76863062D01*
X113796607Y-76863062D02*
X113796607Y-76853539D01*
X113796607Y-76853539D02*
X113806131Y-76834491D01*
X113806131Y-76834491D02*
X113815654Y-76824967D01*
X113815654Y-76824967D02*
X113834702Y-76815443D01*
X113834702Y-76815443D02*
X113872797Y-76815443D01*
X113872797Y-76815443D02*
X113891845Y-76824967D01*
X113891845Y-76824967D02*
X113901369Y-76834491D01*
X113901369Y-76834491D02*
X113910892Y-76853539D01*
X113910892Y-76853539D02*
X113910892Y-76863062D01*
X113910892Y-76863062D02*
X113901369Y-76882110D01*
X113901369Y-76882110D02*
X113891845Y-76891634D01*
X113891845Y-76891634D02*
X113872797Y-76901158D01*
X113872797Y-76901158D02*
X113834702Y-76901158D01*
X113834702Y-76901158D02*
X113815654Y-76910681D01*
X113815654Y-76910681D02*
X113806131Y-76920205D01*
X113806131Y-76920205D02*
X113796607Y-76939253D01*
X113796607Y-76939253D02*
X113796607Y-76977348D01*
X113796607Y-76977348D02*
X113806131Y-76996396D01*
X113806131Y-76996396D02*
X113815654Y-77005920D01*
X113815654Y-77005920D02*
X113834702Y-77015443D01*
X113834702Y-77015443D02*
X113872797Y-77015443D01*
X113872797Y-77015443D02*
X113891845Y-77005920D01*
X113891845Y-77005920D02*
X113901369Y-76996396D01*
X113901369Y-76996396D02*
X113910892Y-76977348D01*
X113910892Y-76977348D02*
X113910892Y-76939253D01*
X113910892Y-76939253D02*
X113901369Y-76920205D01*
X113901369Y-76920205D02*
X113891845Y-76910681D01*
X113891845Y-76910681D02*
X113872797Y-76901158D01*
D14*
%TO.C,D9*%
X101069868Y-70467818D02*
X101069868Y-69197818D01*
X101069868Y-69197818D02*
X101372249Y-69197818D01*
X101372249Y-69197818D02*
X101553678Y-69258294D01*
X101553678Y-69258294D02*
X101674630Y-69379246D01*
X101674630Y-69379246D02*
X101735107Y-69500199D01*
X101735107Y-69500199D02*
X101795583Y-69742103D01*
X101795583Y-69742103D02*
X101795583Y-69923532D01*
X101795583Y-69923532D02*
X101735107Y-70165437D01*
X101735107Y-70165437D02*
X101674630Y-70286389D01*
X101674630Y-70286389D02*
X101553678Y-70407342D01*
X101553678Y-70407342D02*
X101372249Y-70467818D01*
X101372249Y-70467818D02*
X101069868Y-70467818D01*
X102400345Y-70467818D02*
X102642249Y-70467818D01*
X102642249Y-70467818D02*
X102763202Y-70407342D01*
X102763202Y-70407342D02*
X102823678Y-70346865D01*
X102823678Y-70346865D02*
X102944630Y-70165437D01*
X102944630Y-70165437D02*
X103005107Y-69923532D01*
X103005107Y-69923532D02*
X103005107Y-69439722D01*
X103005107Y-69439722D02*
X102944630Y-69318770D01*
X102944630Y-69318770D02*
X102884154Y-69258294D01*
X102884154Y-69258294D02*
X102763202Y-69197818D01*
X102763202Y-69197818D02*
X102521297Y-69197818D01*
X102521297Y-69197818D02*
X102400345Y-69258294D01*
X102400345Y-69258294D02*
X102339868Y-69318770D01*
X102339868Y-69318770D02*
X102279392Y-69439722D01*
X102279392Y-69439722D02*
X102279392Y-69742103D01*
X102279392Y-69742103D02*
X102339868Y-69863056D01*
X102339868Y-69863056D02*
X102400345Y-69923532D01*
X102400345Y-69923532D02*
X102521297Y-69984008D01*
X102521297Y-69984008D02*
X102763202Y-69984008D01*
X102763202Y-69984008D02*
X102884154Y-69923532D01*
X102884154Y-69923532D02*
X102944630Y-69863056D01*
X102944630Y-69863056D02*
X103005107Y-69742103D01*
D11*
%TO.C,J2*%
X119262069Y-40766833D02*
X119976354Y-40766833D01*
X119976354Y-40766833D02*
X120119211Y-40814452D01*
X120119211Y-40814452D02*
X120214450Y-40909690D01*
X120214450Y-40909690D02*
X120262069Y-41052547D01*
X120262069Y-41052547D02*
X120262069Y-41147785D01*
X119357307Y-40338261D02*
X119309688Y-40290642D01*
X119309688Y-40290642D02*
X119262069Y-40195404D01*
X119262069Y-40195404D02*
X119262069Y-39957309D01*
X119262069Y-39957309D02*
X119309688Y-39862071D01*
X119309688Y-39862071D02*
X119357307Y-39814452D01*
X119357307Y-39814452D02*
X119452545Y-39766833D01*
X119452545Y-39766833D02*
X119547783Y-39766833D01*
X119547783Y-39766833D02*
X119690640Y-39814452D01*
X119690640Y-39814452D02*
X120262069Y-40385880D01*
X120262069Y-40385880D02*
X120262069Y-39766833D01*
%TO.C,C2*%
X123158330Y-68686666D02*
X123205950Y-68734285D01*
X123205950Y-68734285D02*
X123253569Y-68877142D01*
X123253569Y-68877142D02*
X123253569Y-68972380D01*
X123253569Y-68972380D02*
X123205950Y-69115237D01*
X123205950Y-69115237D02*
X123110711Y-69210475D01*
X123110711Y-69210475D02*
X123015473Y-69258094D01*
X123015473Y-69258094D02*
X122824997Y-69305713D01*
X122824997Y-69305713D02*
X122682140Y-69305713D01*
X122682140Y-69305713D02*
X122491664Y-69258094D01*
X122491664Y-69258094D02*
X122396426Y-69210475D01*
X122396426Y-69210475D02*
X122301188Y-69115237D01*
X122301188Y-69115237D02*
X122253569Y-68972380D01*
X122253569Y-68972380D02*
X122253569Y-68877142D01*
X122253569Y-68877142D02*
X122301188Y-68734285D01*
X122301188Y-68734285D02*
X122348807Y-68686666D01*
X122348807Y-68305713D02*
X122301188Y-68258094D01*
X122301188Y-68258094D02*
X122253569Y-68162856D01*
X122253569Y-68162856D02*
X122253569Y-67924761D01*
X122253569Y-67924761D02*
X122301188Y-67829523D01*
X122301188Y-67829523D02*
X122348807Y-67781904D01*
X122348807Y-67781904D02*
X122444045Y-67734285D01*
X122444045Y-67734285D02*
X122539283Y-67734285D01*
X122539283Y-67734285D02*
X122682140Y-67781904D01*
X122682140Y-67781904D02*
X123253569Y-68353332D01*
X123253569Y-68353332D02*
X123253569Y-67734285D01*
%TO.C,Q2*%
X106443511Y-83970057D02*
X106348273Y-83922438D01*
X106348273Y-83922438D02*
X106253035Y-83827200D01*
X106253035Y-83827200D02*
X106110178Y-83684342D01*
X106110178Y-83684342D02*
X106014940Y-83636723D01*
X106014940Y-83636723D02*
X105919702Y-83636723D01*
X105967321Y-83874819D02*
X105872083Y-83827200D01*
X105872083Y-83827200D02*
X105776845Y-83731961D01*
X105776845Y-83731961D02*
X105729226Y-83541485D01*
X105729226Y-83541485D02*
X105729226Y-83208152D01*
X105729226Y-83208152D02*
X105776845Y-83017676D01*
X105776845Y-83017676D02*
X105872083Y-82922438D01*
X105872083Y-82922438D02*
X105967321Y-82874819D01*
X105967321Y-82874819D02*
X106157797Y-82874819D01*
X106157797Y-82874819D02*
X106253035Y-82922438D01*
X106253035Y-82922438D02*
X106348273Y-83017676D01*
X106348273Y-83017676D02*
X106395892Y-83208152D01*
X106395892Y-83208152D02*
X106395892Y-83541485D01*
X106395892Y-83541485D02*
X106348273Y-83731961D01*
X106348273Y-83731961D02*
X106253035Y-83827200D01*
X106253035Y-83827200D02*
X106157797Y-83874819D01*
X106157797Y-83874819D02*
X105967321Y-83874819D01*
X106776845Y-82970057D02*
X106824464Y-82922438D01*
X106824464Y-82922438D02*
X106919702Y-82874819D01*
X106919702Y-82874819D02*
X107157797Y-82874819D01*
X107157797Y-82874819D02*
X107253035Y-82922438D01*
X107253035Y-82922438D02*
X107300654Y-82970057D01*
X107300654Y-82970057D02*
X107348273Y-83065295D01*
X107348273Y-83065295D02*
X107348273Y-83160533D01*
X107348273Y-83160533D02*
X107300654Y-83303390D01*
X107300654Y-83303390D02*
X106729226Y-83874819D01*
X106729226Y-83874819D02*
X107348273Y-83874819D01*
%TO.C,U1*%
X131119569Y-55780404D02*
X131929092Y-55780404D01*
X131929092Y-55780404D02*
X132024330Y-55732785D01*
X132024330Y-55732785D02*
X132071950Y-55685166D01*
X132071950Y-55685166D02*
X132119569Y-55589928D01*
X132119569Y-55589928D02*
X132119569Y-55399452D01*
X132119569Y-55399452D02*
X132071950Y-55304214D01*
X132071950Y-55304214D02*
X132024330Y-55256595D01*
X132024330Y-55256595D02*
X131929092Y-55208976D01*
X131929092Y-55208976D02*
X131119569Y-55208976D01*
X132119569Y-54208976D02*
X132119569Y-54780404D01*
X132119569Y-54494690D02*
X131119569Y-54494690D01*
X131119569Y-54494690D02*
X131262426Y-54589928D01*
X131262426Y-54589928D02*
X131357664Y-54685166D01*
X131357664Y-54685166D02*
X131405283Y-54780404D01*
%TO.C,J11*%
X110780476Y-36704819D02*
X110780476Y-37419104D01*
X110780476Y-37419104D02*
X110732857Y-37561961D01*
X110732857Y-37561961D02*
X110637619Y-37657200D01*
X110637619Y-37657200D02*
X110494762Y-37704819D01*
X110494762Y-37704819D02*
X110399524Y-37704819D01*
X111780476Y-37704819D02*
X111209048Y-37704819D01*
X111494762Y-37704819D02*
X111494762Y-36704819D01*
X111494762Y-36704819D02*
X111399524Y-36847676D01*
X111399524Y-36847676D02*
X111304286Y-36942914D01*
X111304286Y-36942914D02*
X111209048Y-36990533D01*
X112732857Y-37704819D02*
X112161429Y-37704819D01*
X112447143Y-37704819D02*
X112447143Y-36704819D01*
X112447143Y-36704819D02*
X112351905Y-36847676D01*
X112351905Y-36847676D02*
X112256667Y-36942914D01*
X112256667Y-36942914D02*
X112161429Y-36990533D01*
D15*
%TO.C,R_PROG1*%
X127465233Y-80289285D02*
X127369995Y-80355951D01*
X127465233Y-80403570D02*
X127265233Y-80403570D01*
X127265233Y-80403570D02*
X127265233Y-80327380D01*
X127265233Y-80327380D02*
X127274757Y-80308332D01*
X127274757Y-80308332D02*
X127284281Y-80298809D01*
X127284281Y-80298809D02*
X127303329Y-80289285D01*
X127303329Y-80289285D02*
X127331900Y-80289285D01*
X127331900Y-80289285D02*
X127350948Y-80298809D01*
X127350948Y-80298809D02*
X127360471Y-80308332D01*
X127360471Y-80308332D02*
X127369995Y-80327380D01*
X127369995Y-80327380D02*
X127369995Y-80403570D01*
X127484281Y-80251190D02*
X127484281Y-80098809D01*
X127465233Y-80051189D02*
X127265233Y-80051189D01*
X127265233Y-80051189D02*
X127265233Y-79974999D01*
X127265233Y-79974999D02*
X127274757Y-79955951D01*
X127274757Y-79955951D02*
X127284281Y-79946428D01*
X127284281Y-79946428D02*
X127303329Y-79936904D01*
X127303329Y-79936904D02*
X127331900Y-79936904D01*
X127331900Y-79936904D02*
X127350948Y-79946428D01*
X127350948Y-79946428D02*
X127360471Y-79955951D01*
X127360471Y-79955951D02*
X127369995Y-79974999D01*
X127369995Y-79974999D02*
X127369995Y-80051189D01*
X127465233Y-79736904D02*
X127369995Y-79803570D01*
X127465233Y-79851189D02*
X127265233Y-79851189D01*
X127265233Y-79851189D02*
X127265233Y-79774999D01*
X127265233Y-79774999D02*
X127274757Y-79755951D01*
X127274757Y-79755951D02*
X127284281Y-79746428D01*
X127284281Y-79746428D02*
X127303329Y-79736904D01*
X127303329Y-79736904D02*
X127331900Y-79736904D01*
X127331900Y-79736904D02*
X127350948Y-79746428D01*
X127350948Y-79746428D02*
X127360471Y-79755951D01*
X127360471Y-79755951D02*
X127369995Y-79774999D01*
X127369995Y-79774999D02*
X127369995Y-79851189D01*
X127265233Y-79613094D02*
X127265233Y-79574999D01*
X127265233Y-79574999D02*
X127274757Y-79555951D01*
X127274757Y-79555951D02*
X127293805Y-79536904D01*
X127293805Y-79536904D02*
X127331900Y-79527380D01*
X127331900Y-79527380D02*
X127398567Y-79527380D01*
X127398567Y-79527380D02*
X127436662Y-79536904D01*
X127436662Y-79536904D02*
X127455710Y-79555951D01*
X127455710Y-79555951D02*
X127465233Y-79574999D01*
X127465233Y-79574999D02*
X127465233Y-79613094D01*
X127465233Y-79613094D02*
X127455710Y-79632142D01*
X127455710Y-79632142D02*
X127436662Y-79651189D01*
X127436662Y-79651189D02*
X127398567Y-79660713D01*
X127398567Y-79660713D02*
X127331900Y-79660713D01*
X127331900Y-79660713D02*
X127293805Y-79651189D01*
X127293805Y-79651189D02*
X127274757Y-79632142D01*
X127274757Y-79632142D02*
X127265233Y-79613094D01*
X127274757Y-79336904D02*
X127265233Y-79355951D01*
X127265233Y-79355951D02*
X127265233Y-79384523D01*
X127265233Y-79384523D02*
X127274757Y-79413094D01*
X127274757Y-79413094D02*
X127293805Y-79432142D01*
X127293805Y-79432142D02*
X127312852Y-79441665D01*
X127312852Y-79441665D02*
X127350948Y-79451189D01*
X127350948Y-79451189D02*
X127379519Y-79451189D01*
X127379519Y-79451189D02*
X127417614Y-79441665D01*
X127417614Y-79441665D02*
X127436662Y-79432142D01*
X127436662Y-79432142D02*
X127455710Y-79413094D01*
X127455710Y-79413094D02*
X127465233Y-79384523D01*
X127465233Y-79384523D02*
X127465233Y-79365475D01*
X127465233Y-79365475D02*
X127455710Y-79336904D01*
X127455710Y-79336904D02*
X127446186Y-79327380D01*
X127446186Y-79327380D02*
X127379519Y-79327380D01*
X127379519Y-79327380D02*
X127379519Y-79365475D01*
X127465233Y-79136904D02*
X127465233Y-79251189D01*
X127465233Y-79194046D02*
X127265233Y-79194046D01*
X127265233Y-79194046D02*
X127293805Y-79213094D01*
X127293805Y-79213094D02*
X127312852Y-79232142D01*
X127312852Y-79232142D02*
X127322376Y-79251189D01*
D11*
%TO.C,C5*%
X93681830Y-68571166D02*
X93729450Y-68618785D01*
X93729450Y-68618785D02*
X93777069Y-68761642D01*
X93777069Y-68761642D02*
X93777069Y-68856880D01*
X93777069Y-68856880D02*
X93729450Y-68999737D01*
X93729450Y-68999737D02*
X93634211Y-69094975D01*
X93634211Y-69094975D02*
X93538973Y-69142594D01*
X93538973Y-69142594D02*
X93348497Y-69190213D01*
X93348497Y-69190213D02*
X93205640Y-69190213D01*
X93205640Y-69190213D02*
X93015164Y-69142594D01*
X93015164Y-69142594D02*
X92919926Y-69094975D01*
X92919926Y-69094975D02*
X92824688Y-68999737D01*
X92824688Y-68999737D02*
X92777069Y-68856880D01*
X92777069Y-68856880D02*
X92777069Y-68761642D01*
X92777069Y-68761642D02*
X92824688Y-68618785D01*
X92824688Y-68618785D02*
X92872307Y-68571166D01*
X92777069Y-67666404D02*
X92777069Y-68142594D01*
X92777069Y-68142594D02*
X93253259Y-68190213D01*
X93253259Y-68190213D02*
X93205640Y-68142594D01*
X93205640Y-68142594D02*
X93158021Y-68047356D01*
X93158021Y-68047356D02*
X93158021Y-67809261D01*
X93158021Y-67809261D02*
X93205640Y-67714023D01*
X93205640Y-67714023D02*
X93253259Y-67666404D01*
X93253259Y-67666404D02*
X93348497Y-67618785D01*
X93348497Y-67618785D02*
X93586592Y-67618785D01*
X93586592Y-67618785D02*
X93681830Y-67666404D01*
X93681830Y-67666404D02*
X93729450Y-67714023D01*
X93729450Y-67714023D02*
X93777069Y-67809261D01*
X93777069Y-67809261D02*
X93777069Y-68047356D01*
X93777069Y-68047356D02*
X93729450Y-68142594D01*
X93729450Y-68142594D02*
X93681830Y-68190213D01*
D12*
%TO.C,D3*%
X132702202Y-60658709D02*
X132702202Y-60158709D01*
X132702202Y-60158709D02*
X132821250Y-60158709D01*
X132821250Y-60158709D02*
X132892678Y-60182519D01*
X132892678Y-60182519D02*
X132940297Y-60230138D01*
X132940297Y-60230138D02*
X132964107Y-60277757D01*
X132964107Y-60277757D02*
X132987916Y-60372995D01*
X132987916Y-60372995D02*
X132987916Y-60444423D01*
X132987916Y-60444423D02*
X132964107Y-60539661D01*
X132964107Y-60539661D02*
X132940297Y-60587280D01*
X132940297Y-60587280D02*
X132892678Y-60634900D01*
X132892678Y-60634900D02*
X132821250Y-60658709D01*
X132821250Y-60658709D02*
X132702202Y-60658709D01*
X133154583Y-60158709D02*
X133464107Y-60158709D01*
X133464107Y-60158709D02*
X133297440Y-60349185D01*
X133297440Y-60349185D02*
X133368869Y-60349185D01*
X133368869Y-60349185D02*
X133416488Y-60372995D01*
X133416488Y-60372995D02*
X133440297Y-60396804D01*
X133440297Y-60396804D02*
X133464107Y-60444423D01*
X133464107Y-60444423D02*
X133464107Y-60563471D01*
X133464107Y-60563471D02*
X133440297Y-60611090D01*
X133440297Y-60611090D02*
X133416488Y-60634900D01*
X133416488Y-60634900D02*
X133368869Y-60658709D01*
X133368869Y-60658709D02*
X133226012Y-60658709D01*
X133226012Y-60658709D02*
X133178393Y-60634900D01*
X133178393Y-60634900D02*
X133154583Y-60611090D01*
D11*
%TO.C,J8*%
X132015416Y-43714819D02*
X132015416Y-44429104D01*
X132015416Y-44429104D02*
X131967797Y-44571961D01*
X131967797Y-44571961D02*
X131872559Y-44667200D01*
X131872559Y-44667200D02*
X131729702Y-44714819D01*
X131729702Y-44714819D02*
X131634464Y-44714819D01*
X132634464Y-44143390D02*
X132539226Y-44095771D01*
X132539226Y-44095771D02*
X132491607Y-44048152D01*
X132491607Y-44048152D02*
X132443988Y-43952914D01*
X132443988Y-43952914D02*
X132443988Y-43905295D01*
X132443988Y-43905295D02*
X132491607Y-43810057D01*
X132491607Y-43810057D02*
X132539226Y-43762438D01*
X132539226Y-43762438D02*
X132634464Y-43714819D01*
X132634464Y-43714819D02*
X132824940Y-43714819D01*
X132824940Y-43714819D02*
X132920178Y-43762438D01*
X132920178Y-43762438D02*
X132967797Y-43810057D01*
X132967797Y-43810057D02*
X133015416Y-43905295D01*
X133015416Y-43905295D02*
X133015416Y-43952914D01*
X133015416Y-43952914D02*
X132967797Y-44048152D01*
X132967797Y-44048152D02*
X132920178Y-44095771D01*
X132920178Y-44095771D02*
X132824940Y-44143390D01*
X132824940Y-44143390D02*
X132634464Y-44143390D01*
X132634464Y-44143390D02*
X132539226Y-44191009D01*
X132539226Y-44191009D02*
X132491607Y-44238628D01*
X132491607Y-44238628D02*
X132443988Y-44333866D01*
X132443988Y-44333866D02*
X132443988Y-44524342D01*
X132443988Y-44524342D02*
X132491607Y-44619580D01*
X132491607Y-44619580D02*
X132539226Y-44667200D01*
X132539226Y-44667200D02*
X132634464Y-44714819D01*
X132634464Y-44714819D02*
X132824940Y-44714819D01*
X132824940Y-44714819D02*
X132920178Y-44667200D01*
X132920178Y-44667200D02*
X132967797Y-44619580D01*
X132967797Y-44619580D02*
X133015416Y-44524342D01*
X133015416Y-44524342D02*
X133015416Y-44333866D01*
X133015416Y-44333866D02*
X132967797Y-44238628D01*
X132967797Y-44238628D02*
X132920178Y-44191009D01*
X132920178Y-44191009D02*
X132824940Y-44143390D01*
%TO.C,SW1*%
X91867737Y-77930505D02*
X91918185Y-78012620D01*
X91918185Y-78012620D02*
X92034916Y-78110569D01*
X92034916Y-78110569D02*
X92101198Y-78126402D01*
X92101198Y-78126402D02*
X92144134Y-78122646D01*
X92144134Y-78122646D02*
X92206659Y-78095543D01*
X92206659Y-78095543D02*
X92245839Y-78048851D01*
X92245839Y-78048851D02*
X92261672Y-77982569D01*
X92261672Y-77982569D02*
X92257916Y-77939633D01*
X92257916Y-77939633D02*
X92230813Y-77877107D01*
X92230813Y-77877107D02*
X92157018Y-77775402D01*
X92157018Y-77775402D02*
X92129916Y-77712877D01*
X92129916Y-77712877D02*
X92126159Y-77669941D01*
X92126159Y-77669941D02*
X92141993Y-77603659D01*
X92141993Y-77603659D02*
X92181172Y-77556967D01*
X92181172Y-77556967D02*
X92243698Y-77529864D01*
X92243698Y-77529864D02*
X92286634Y-77526108D01*
X92286634Y-77526108D02*
X92352915Y-77541941D01*
X92352915Y-77541941D02*
X92469646Y-77639890D01*
X92469646Y-77639890D02*
X92520095Y-77722005D01*
X92703107Y-77835787D02*
X92408454Y-78424004D01*
X92408454Y-78424004D02*
X92795684Y-78152171D01*
X92795684Y-78152171D02*
X92595223Y-78580722D01*
X92595223Y-78580722D02*
X93123337Y-78188402D01*
X93155530Y-79050875D02*
X92875377Y-78815799D01*
X93015453Y-78933337D02*
X93426837Y-78443069D01*
X93426837Y-78443069D02*
X93321376Y-78473928D01*
X93321376Y-78473928D02*
X93235504Y-78481440D01*
X93235504Y-78481440D02*
X93169222Y-78465607D01*
D16*
%TO.C,U4*%
X106231859Y-77480952D02*
X106636621Y-77480952D01*
X106636621Y-77480952D02*
X106684240Y-77457142D01*
X106684240Y-77457142D02*
X106708050Y-77433333D01*
X106708050Y-77433333D02*
X106731859Y-77385714D01*
X106731859Y-77385714D02*
X106731859Y-77290476D01*
X106731859Y-77290476D02*
X106708050Y-77242857D01*
X106708050Y-77242857D02*
X106684240Y-77219047D01*
X106684240Y-77219047D02*
X106636621Y-77195238D01*
X106636621Y-77195238D02*
X106231859Y-77195238D01*
X106398526Y-76742856D02*
X106731859Y-76742856D01*
X106208050Y-76861904D02*
X106565192Y-76980951D01*
X106565192Y-76980951D02*
X106565192Y-76671428D01*
D12*
%TO.C,D4*%
X131902202Y-61268709D02*
X131902202Y-60768709D01*
X131902202Y-60768709D02*
X132021250Y-60768709D01*
X132021250Y-60768709D02*
X132092678Y-60792519D01*
X132092678Y-60792519D02*
X132140297Y-60840138D01*
X132140297Y-60840138D02*
X132164107Y-60887757D01*
X132164107Y-60887757D02*
X132187916Y-60982995D01*
X132187916Y-60982995D02*
X132187916Y-61054423D01*
X132187916Y-61054423D02*
X132164107Y-61149661D01*
X132164107Y-61149661D02*
X132140297Y-61197280D01*
X132140297Y-61197280D02*
X132092678Y-61244900D01*
X132092678Y-61244900D02*
X132021250Y-61268709D01*
X132021250Y-61268709D02*
X131902202Y-61268709D01*
X132616488Y-60935376D02*
X132616488Y-61268709D01*
X132497440Y-60744900D02*
X132378393Y-61102042D01*
X132378393Y-61102042D02*
X132687916Y-61102042D01*
%TO.C,R3*%
X111920959Y-48834333D02*
X111682864Y-49000999D01*
X111920959Y-49120047D02*
X111420959Y-49120047D01*
X111420959Y-49120047D02*
X111420959Y-48929571D01*
X111420959Y-48929571D02*
X111444769Y-48881952D01*
X111444769Y-48881952D02*
X111468578Y-48858142D01*
X111468578Y-48858142D02*
X111516197Y-48834333D01*
X111516197Y-48834333D02*
X111587626Y-48834333D01*
X111587626Y-48834333D02*
X111635245Y-48858142D01*
X111635245Y-48858142D02*
X111659054Y-48881952D01*
X111659054Y-48881952D02*
X111682864Y-48929571D01*
X111682864Y-48929571D02*
X111682864Y-49120047D01*
X111420959Y-48667666D02*
X111420959Y-48358142D01*
X111420959Y-48358142D02*
X111611435Y-48524809D01*
X111611435Y-48524809D02*
X111611435Y-48453380D01*
X111611435Y-48453380D02*
X111635245Y-48405761D01*
X111635245Y-48405761D02*
X111659054Y-48381952D01*
X111659054Y-48381952D02*
X111706673Y-48358142D01*
X111706673Y-48358142D02*
X111825721Y-48358142D01*
X111825721Y-48358142D02*
X111873340Y-48381952D01*
X111873340Y-48381952D02*
X111897150Y-48405761D01*
X111897150Y-48405761D02*
X111920959Y-48453380D01*
X111920959Y-48453380D02*
X111920959Y-48596237D01*
X111920959Y-48596237D02*
X111897150Y-48643856D01*
X111897150Y-48643856D02*
X111873340Y-48667666D01*
%TO.C,D1*%
X135877459Y-55591547D02*
X135377459Y-55591547D01*
X135377459Y-55591547D02*
X135377459Y-55472499D01*
X135377459Y-55472499D02*
X135401269Y-55401071D01*
X135401269Y-55401071D02*
X135448888Y-55353452D01*
X135448888Y-55353452D02*
X135496507Y-55329642D01*
X135496507Y-55329642D02*
X135591745Y-55305833D01*
X135591745Y-55305833D02*
X135663173Y-55305833D01*
X135663173Y-55305833D02*
X135758411Y-55329642D01*
X135758411Y-55329642D02*
X135806030Y-55353452D01*
X135806030Y-55353452D02*
X135853650Y-55401071D01*
X135853650Y-55401071D02*
X135877459Y-55472499D01*
X135877459Y-55472499D02*
X135877459Y-55591547D01*
X135877459Y-54829642D02*
X135877459Y-55115356D01*
X135877459Y-54972499D02*
X135377459Y-54972499D01*
X135377459Y-54972499D02*
X135448888Y-55020118D01*
X135448888Y-55020118D02*
X135496507Y-55067737D01*
X135496507Y-55067737D02*
X135520316Y-55115356D01*
%TO.C,C1*%
X123175416Y-71158590D02*
X123151607Y-71182400D01*
X123151607Y-71182400D02*
X123080178Y-71206209D01*
X123080178Y-71206209D02*
X123032559Y-71206209D01*
X123032559Y-71206209D02*
X122961131Y-71182400D01*
X122961131Y-71182400D02*
X122913512Y-71134780D01*
X122913512Y-71134780D02*
X122889702Y-71087161D01*
X122889702Y-71087161D02*
X122865893Y-70991923D01*
X122865893Y-70991923D02*
X122865893Y-70920495D01*
X122865893Y-70920495D02*
X122889702Y-70825257D01*
X122889702Y-70825257D02*
X122913512Y-70777638D01*
X122913512Y-70777638D02*
X122961131Y-70730019D01*
X122961131Y-70730019D02*
X123032559Y-70706209D01*
X123032559Y-70706209D02*
X123080178Y-70706209D01*
X123080178Y-70706209D02*
X123151607Y-70730019D01*
X123151607Y-70730019D02*
X123175416Y-70753828D01*
X123651607Y-71206209D02*
X123365893Y-71206209D01*
X123508750Y-71206209D02*
X123508750Y-70706209D01*
X123508750Y-70706209D02*
X123461131Y-70777638D01*
X123461131Y-70777638D02*
X123413512Y-70825257D01*
X123413512Y-70825257D02*
X123365893Y-70849066D01*
%TO.C,C6*%
X107857126Y-72833333D02*
X107866650Y-72842857D01*
X107866650Y-72842857D02*
X107876173Y-72871428D01*
X107876173Y-72871428D02*
X107876173Y-72890476D01*
X107876173Y-72890476D02*
X107866650Y-72919047D01*
X107866650Y-72919047D02*
X107847602Y-72938095D01*
X107847602Y-72938095D02*
X107828554Y-72947618D01*
X107828554Y-72947618D02*
X107790459Y-72957142D01*
X107790459Y-72957142D02*
X107761888Y-72957142D01*
X107761888Y-72957142D02*
X107723792Y-72947618D01*
X107723792Y-72947618D02*
X107704745Y-72938095D01*
X107704745Y-72938095D02*
X107685697Y-72919047D01*
X107685697Y-72919047D02*
X107676173Y-72890476D01*
X107676173Y-72890476D02*
X107676173Y-72871428D01*
X107676173Y-72871428D02*
X107685697Y-72842857D01*
X107685697Y-72842857D02*
X107695221Y-72833333D01*
X107676173Y-72661904D02*
X107676173Y-72699999D01*
X107676173Y-72699999D02*
X107685697Y-72719047D01*
X107685697Y-72719047D02*
X107695221Y-72728571D01*
X107695221Y-72728571D02*
X107723792Y-72747618D01*
X107723792Y-72747618D02*
X107761888Y-72757142D01*
X107761888Y-72757142D02*
X107838078Y-72757142D01*
X107838078Y-72757142D02*
X107857126Y-72747618D01*
X107857126Y-72747618D02*
X107866650Y-72738095D01*
X107866650Y-72738095D02*
X107876173Y-72719047D01*
X107876173Y-72719047D02*
X107876173Y-72680952D01*
X107876173Y-72680952D02*
X107866650Y-72661904D01*
X107866650Y-72661904D02*
X107857126Y-72652380D01*
X107857126Y-72652380D02*
X107838078Y-72642857D01*
X107838078Y-72642857D02*
X107790459Y-72642857D01*
X107790459Y-72642857D02*
X107771411Y-72652380D01*
X107771411Y-72652380D02*
X107761888Y-72661904D01*
X107761888Y-72661904D02*
X107752364Y-72680952D01*
X107752364Y-72680952D02*
X107752364Y-72719047D01*
X107752364Y-72719047D02*
X107761888Y-72738095D01*
X107761888Y-72738095D02*
X107771411Y-72747618D01*
X107771411Y-72747618D02*
X107790459Y-72757142D01*
D15*
%TO.C,R6*%
X111510416Y-79355269D02*
X111343750Y-79117174D01*
X111224702Y-79355269D02*
X111224702Y-78855269D01*
X111224702Y-78855269D02*
X111415178Y-78855269D01*
X111415178Y-78855269D02*
X111462797Y-78879079D01*
X111462797Y-78879079D02*
X111486607Y-78902888D01*
X111486607Y-78902888D02*
X111510416Y-78950507D01*
X111510416Y-78950507D02*
X111510416Y-79021936D01*
X111510416Y-79021936D02*
X111486607Y-79069555D01*
X111486607Y-79069555D02*
X111462797Y-79093364D01*
X111462797Y-79093364D02*
X111415178Y-79117174D01*
X111415178Y-79117174D02*
X111224702Y-79117174D01*
X111938988Y-78855269D02*
X111843750Y-78855269D01*
X111843750Y-78855269D02*
X111796131Y-78879079D01*
X111796131Y-78879079D02*
X111772321Y-78902888D01*
X111772321Y-78902888D02*
X111724702Y-78974317D01*
X111724702Y-78974317D02*
X111700893Y-79069555D01*
X111700893Y-79069555D02*
X111700893Y-79260031D01*
X111700893Y-79260031D02*
X111724702Y-79307650D01*
X111724702Y-79307650D02*
X111748512Y-79331460D01*
X111748512Y-79331460D02*
X111796131Y-79355269D01*
X111796131Y-79355269D02*
X111891369Y-79355269D01*
X111891369Y-79355269D02*
X111938988Y-79331460D01*
X111938988Y-79331460D02*
X111962797Y-79307650D01*
X111962797Y-79307650D02*
X111986607Y-79260031D01*
X111986607Y-79260031D02*
X111986607Y-79140983D01*
X111986607Y-79140983D02*
X111962797Y-79093364D01*
X111962797Y-79093364D02*
X111938988Y-79069555D01*
X111938988Y-79069555D02*
X111891369Y-79045745D01*
X111891369Y-79045745D02*
X111796131Y-79045745D01*
X111796131Y-79045745D02*
X111748512Y-79069555D01*
X111748512Y-79069555D02*
X111724702Y-79093364D01*
X111724702Y-79093364D02*
X111700893Y-79140983D01*
D11*
%TO.C,J7*%
X127595416Y-42306819D02*
X127595416Y-43021104D01*
X127595416Y-43021104D02*
X127547797Y-43163961D01*
X127547797Y-43163961D02*
X127452559Y-43259200D01*
X127452559Y-43259200D02*
X127309702Y-43306819D01*
X127309702Y-43306819D02*
X127214464Y-43306819D01*
X127976369Y-42306819D02*
X128643035Y-42306819D01*
X128643035Y-42306819D02*
X128214464Y-43306819D01*
D12*
%TO.C,U3*%
X118642797Y-76333709D02*
X118642797Y-76738471D01*
X118642797Y-76738471D02*
X118666607Y-76786090D01*
X118666607Y-76786090D02*
X118690416Y-76809900D01*
X118690416Y-76809900D02*
X118738035Y-76833709D01*
X118738035Y-76833709D02*
X118833273Y-76833709D01*
X118833273Y-76833709D02*
X118880892Y-76809900D01*
X118880892Y-76809900D02*
X118904702Y-76786090D01*
X118904702Y-76786090D02*
X118928511Y-76738471D01*
X118928511Y-76738471D02*
X118928511Y-76333709D01*
X119118988Y-76333709D02*
X119428512Y-76333709D01*
X119428512Y-76333709D02*
X119261845Y-76524185D01*
X119261845Y-76524185D02*
X119333274Y-76524185D01*
X119333274Y-76524185D02*
X119380893Y-76547995D01*
X119380893Y-76547995D02*
X119404702Y-76571804D01*
X119404702Y-76571804D02*
X119428512Y-76619423D01*
X119428512Y-76619423D02*
X119428512Y-76738471D01*
X119428512Y-76738471D02*
X119404702Y-76786090D01*
X119404702Y-76786090D02*
X119380893Y-76809900D01*
X119380893Y-76809900D02*
X119333274Y-76833709D01*
X119333274Y-76833709D02*
X119190417Y-76833709D01*
X119190417Y-76833709D02*
X119142798Y-76809900D01*
X119142798Y-76809900D02*
X119118988Y-76786090D01*
D11*
%TO.C,J5*%
X120665416Y-42246819D02*
X120665416Y-42961104D01*
X120665416Y-42961104D02*
X120617797Y-43103961D01*
X120617797Y-43103961D02*
X120522559Y-43199200D01*
X120522559Y-43199200D02*
X120379702Y-43246819D01*
X120379702Y-43246819D02*
X120284464Y-43246819D01*
X121617797Y-42246819D02*
X121141607Y-42246819D01*
X121141607Y-42246819D02*
X121093988Y-42723009D01*
X121093988Y-42723009D02*
X121141607Y-42675390D01*
X121141607Y-42675390D02*
X121236845Y-42627771D01*
X121236845Y-42627771D02*
X121474940Y-42627771D01*
X121474940Y-42627771D02*
X121570178Y-42675390D01*
X121570178Y-42675390D02*
X121617797Y-42723009D01*
X121617797Y-42723009D02*
X121665416Y-42818247D01*
X121665416Y-42818247D02*
X121665416Y-43056342D01*
X121665416Y-43056342D02*
X121617797Y-43151580D01*
X121617797Y-43151580D02*
X121570178Y-43199200D01*
X121570178Y-43199200D02*
X121474940Y-43246819D01*
X121474940Y-43246819D02*
X121236845Y-43246819D01*
X121236845Y-43246819D02*
X121141607Y-43199200D01*
X121141607Y-43199200D02*
X121093988Y-43151580D01*
D17*
%TO.C,D11*%
X113275000Y-82972500D02*
X113275000Y-80512500D01*
X111805000Y-80512500D02*
X111805000Y-82972500D01*
X113275000Y-80512500D02*
X111805000Y-80512500D01*
%TO.C,D10*%
X111445000Y-80685000D02*
X111445000Y-78225000D01*
X109975000Y-78225000D02*
X109975000Y-80685000D01*
X111445000Y-78225000D02*
X109975000Y-78225000D01*
%TO.C,R4*%
X107465000Y-55560000D02*
X114415000Y-55560000D01*
X107465000Y-53596000D02*
X107465000Y-55560000D01*
X107465000Y-50820000D02*
X107465000Y-52606000D01*
X114415000Y-50820000D02*
X114415000Y-52606000D01*
X114415000Y-53596000D02*
X114415000Y-55560000D01*
X107465000Y-50820000D02*
X114415000Y-50820000D01*
%TO.C,C4*%
X97667500Y-62857500D02*
X96880000Y-62857500D01*
X97273750Y-63251250D02*
X97273750Y-62463750D01*
X96640000Y-63355563D02*
X96640000Y-62070000D01*
X96640000Y-63355563D02*
X95575563Y-64420000D01*
X96640000Y-58664437D02*
X96640000Y-59950000D01*
X96640000Y-58664437D02*
X95575563Y-57600000D01*
X95575563Y-64420000D02*
X89820000Y-64420000D01*
X95575563Y-57600000D02*
X89820000Y-57600000D01*
X89820000Y-64420000D02*
X89820000Y-62070000D01*
X89820000Y-57600000D02*
X89820000Y-59950000D01*
%TO.C,L1*%
X99662250Y-57868500D02*
X106262250Y-57868500D01*
X106262250Y-57868500D02*
X106262250Y-59568500D01*
X106262250Y-64268500D02*
X99662250Y-64268500D01*
X99662250Y-64268500D02*
X99662250Y-62568500D01*
X106262250Y-62568500D02*
X106262250Y-64268500D01*
X99662250Y-59568500D02*
X99662250Y-57868500D01*
%TO.C,D17*%
X131050000Y-73045000D02*
X133510000Y-73045000D01*
X133510000Y-71575000D02*
X131050000Y-71575000D01*
X133510000Y-73045000D02*
X133510000Y-71575000D01*
%TO.C,U5*%
X104980000Y-46100000D02*
X105780000Y-46100000D01*
X104980000Y-49220000D02*
X104180000Y-49220000D01*
X104980000Y-46100000D02*
X104180000Y-46100000D01*
X104980000Y-49220000D02*
X106780000Y-49220000D01*
%TO.C,R9*%
X127904026Y-71775000D02*
X128413474Y-71775000D01*
X127904026Y-72820000D02*
X128413474Y-72820000D01*
D11*
%TO.C,C7*%
X118768750Y-61760000D02*
X116694750Y-61760000D01*
X112588750Y-61760000D02*
X114662750Y-61760000D01*
D10*
X113392750Y-62481500D02*
X113392750Y-64386500D01*
X114345250Y-63434000D02*
X112440250Y-63434000D01*
D11*
X120908750Y-63900000D02*
X118768750Y-61760000D01*
X110448750Y-63900000D02*
X112588750Y-61760000D01*
D10*
X113392750Y-69657000D02*
X113392750Y-71562000D01*
D11*
X120908750Y-72220000D02*
X120908750Y-63900000D01*
X116694750Y-72220000D02*
X120908750Y-72220000D01*
X114662750Y-72220000D02*
X110448750Y-72220000D01*
X110448750Y-72220000D02*
X110448750Y-63900000D01*
D17*
%TO.C,D6*%
X117858750Y-44717500D02*
X119778750Y-44717500D01*
X119778750Y-44717500D02*
X119778750Y-41857500D01*
X117858750Y-41857500D02*
X117858750Y-44717500D01*
%TO.C,D2*%
X136388750Y-53827500D02*
X138308750Y-53827500D01*
X138308750Y-53827500D02*
X138308750Y-50967500D01*
X136388750Y-50967500D02*
X136388750Y-53827500D01*
%TO.C,J10*%
X115330000Y-36370000D02*
X116730000Y-36370000D01*
X115330000Y-37770000D02*
X115330000Y-36370000D01*
X116730000Y-36370000D02*
X116730000Y-37770000D01*
X116730000Y-37770000D02*
X115330000Y-37770000D01*
%TO.C,R2*%
X119204026Y-82397500D02*
X119713474Y-82397500D01*
X119204026Y-83442500D02*
X119713474Y-83442500D01*
%TO.C,C9*%
X90352250Y-68319733D02*
X90352250Y-68612267D01*
X89332250Y-68319733D02*
X89332250Y-68612267D01*
%TO.C,J6*%
X124938750Y-43600000D02*
X126338750Y-43600000D01*
X124938750Y-45000000D02*
X124938750Y-43600000D01*
X126338750Y-43600000D02*
X126338750Y-45000000D01*
X126338750Y-45000000D02*
X124938750Y-45000000D01*
%TO.C,R1*%
X115644026Y-82367500D02*
X116153474Y-82367500D01*
X115644026Y-83412500D02*
X116153474Y-83412500D01*
D18*
%TO.C,U2*%
X127771250Y-63917500D02*
X127771250Y-70417500D01*
X127771250Y-70417500D02*
X128544750Y-70417500D01*
X128544750Y-63917500D02*
X127771250Y-63917500D01*
D19*
X125658750Y-63167500D02*
G75*
G03*
X125658750Y-63167500I-100000J0D01*
G01*
D17*
%TO.C,C8*%
X124522483Y-76780000D02*
X124815017Y-76780000D01*
X124522483Y-77800000D02*
X124815017Y-77800000D01*
%TO.C,J9*%
X109342250Y-85996000D02*
X109342250Y-87751000D01*
X109342250Y-89698500D02*
X109342250Y-91098500D01*
X118542250Y-85996000D02*
X118542250Y-87751000D01*
X118542250Y-89698500D02*
X118542250Y-91098500D01*
%TO.C,J3*%
X122678750Y-43570000D02*
X124078750Y-43570000D01*
X122678750Y-44970000D02*
X122678750Y-43570000D01*
X124078750Y-43570000D02*
X124078750Y-44970000D01*
X124078750Y-44970000D02*
X122678750Y-44970000D01*
%TO.C,R8*%
X113189026Y-75372500D02*
X113698474Y-75372500D01*
X113189026Y-76417500D02*
X113698474Y-76417500D01*
D19*
%TO.C,D9*%
X105977250Y-67048500D02*
X98027250Y-67048500D01*
X98027250Y-72948500D02*
X106577250Y-72948500D01*
D17*
%TO.C,J2*%
X120682250Y-41128500D02*
X120682250Y-40433500D01*
X121367250Y-41128500D02*
X120682250Y-41128500D01*
X122052250Y-41128500D02*
X124927250Y-41128500D01*
X122052250Y-41128500D02*
X122052250Y-41041776D01*
X124927250Y-41128500D02*
X124927250Y-40827993D01*
X124927250Y-40039007D02*
X124927250Y-39738500D01*
X122052250Y-39825224D02*
X122052250Y-39738500D01*
X122052250Y-39738500D02*
X124927250Y-39738500D01*
%TO.C,D8*%
X117028750Y-38822500D02*
X115108750Y-38822500D01*
X115108750Y-38822500D02*
X115108750Y-41682500D01*
X117028750Y-41682500D02*
X117028750Y-38822500D01*
%TO.C,C2*%
X123028750Y-65563733D02*
X123028750Y-65856267D01*
X122008750Y-65563733D02*
X122008750Y-65856267D01*
D18*
%TO.C,Q2*%
X107133750Y-82320000D02*
X105533750Y-82320000D01*
X107133750Y-79120000D02*
X105533750Y-79120000D01*
D19*
X108861750Y-81665000D02*
G75*
G03*
X108861750Y-81665000I-100000J0D01*
G01*
D18*
%TO.C,U1*%
X135408750Y-53140000D02*
X135408750Y-48140000D01*
X115208750Y-48140000D02*
X115208750Y-53140000D01*
X135408750Y-48140000D02*
X115208750Y-48140000D01*
D19*
X116518750Y-59360000D02*
G75*
G03*
X116518750Y-59360000I-100000J0D01*
G01*
D17*
%TO.C,J4*%
X88783279Y-50340355D02*
X92759373Y-43723024D01*
X89829023Y-50968702D02*
X90457370Y-49922958D01*
X96000628Y-54676976D02*
X88783279Y-50340355D01*
X90457370Y-49922958D02*
X94743206Y-52498148D01*
X93886039Y-51983110D02*
X96605440Y-47457267D01*
X94743206Y-52498148D02*
X94114860Y-53543892D01*
X94743206Y-52498148D02*
X96628974Y-53631232D01*
X96628974Y-53631232D02*
X96000628Y-54676976D01*
X91505618Y-49304511D02*
X91601856Y-48989014D01*
X94437130Y-51065941D02*
X91505618Y-49304511D01*
X97610378Y-52949288D02*
X97919401Y-52434988D01*
X91601856Y-48989014D02*
X91835242Y-48755924D01*
X94601942Y-50791647D02*
X94437130Y-51065941D01*
X97250589Y-52383115D02*
X97610378Y-52949288D01*
X97919401Y-52434988D02*
X97250589Y-52383115D01*
X91835242Y-48755924D02*
X94766754Y-50517354D01*
X94766754Y-50517354D02*
X94601942Y-50791647D01*
X96061704Y-50303800D02*
X96144110Y-50166653D01*
X92793213Y-47161593D02*
X92889452Y-46846096D01*
X95724725Y-48923023D02*
X92793213Y-47161593D01*
X92889452Y-46846096D02*
X93122837Y-46613005D01*
X95889537Y-48648729D02*
X95724725Y-48923023D01*
X93122837Y-46613005D02*
X96054349Y-48374436D01*
X96054349Y-48374436D02*
X95889537Y-48648729D01*
X93176771Y-45397114D02*
X97462607Y-47972305D01*
X97462607Y-47972305D02*
X98090954Y-46926561D01*
X99348375Y-49105389D02*
X97462607Y-47972305D01*
X92759373Y-43723024D02*
X99976722Y-48059644D01*
X93805117Y-44351370D02*
X93176771Y-45397114D01*
X99976722Y-48059644D02*
X99348375Y-49105389D01*
%TO.C,J11*%
X114540000Y-37760000D02*
X113140000Y-37760000D01*
X114540000Y-36360000D02*
X114540000Y-37760000D01*
X113140000Y-37760000D02*
X113140000Y-36360000D01*
X113140000Y-36360000D02*
X114540000Y-36360000D01*
%TO.C,R_PROG1*%
X124519026Y-79252500D02*
X125028474Y-79252500D01*
X124519026Y-80297500D02*
X125028474Y-80297500D01*
%TO.C,C5*%
X94242250Y-68550767D02*
X94242250Y-68258233D01*
X95262250Y-68550767D02*
X95262250Y-68258233D01*
%TO.C,D3*%
X134576250Y-63260000D02*
X134576250Y-61340000D01*
X134576250Y-61340000D02*
X131716250Y-61340000D01*
X131716250Y-63260000D02*
X134576250Y-63260000D01*
%TO.C,J8*%
X129668750Y-43600000D02*
X131068750Y-43600000D01*
X129668750Y-45000000D02*
X129668750Y-43600000D01*
X131068750Y-43600000D02*
X131068750Y-45000000D01*
X131068750Y-45000000D02*
X129668750Y-45000000D01*
D18*
%TO.C,SW1*%
X93044767Y-75888243D02*
X90473617Y-78952421D01*
X90473617Y-78952421D02*
X99359733Y-86408757D01*
X101930883Y-83344579D02*
X93044767Y-75888243D01*
X99359733Y-86408757D02*
X101930883Y-83344579D01*
D19*
X91322961Y-76970381D02*
G75*
G03*
X91322961Y-76970381I-100000J0D01*
G01*
%TO.C,U4*%
X103888750Y-76090000D02*
G75*
G03*
X103888750Y-76090000I-100000J0D01*
G01*
D17*
%TO.C,D7*%
X112598750Y-47467500D02*
X114518750Y-47467500D01*
X114518750Y-47467500D02*
X114518750Y-44607500D01*
X112598750Y-44607500D02*
X112598750Y-47467500D01*
%TO.C,D4*%
X130841250Y-59120000D02*
X130841250Y-61040000D01*
X130841250Y-61040000D02*
X133701250Y-61040000D01*
X133701250Y-59120000D02*
X130841250Y-59120000D01*
%TO.C,R5*%
X113174026Y-77337500D02*
X113683474Y-77337500D01*
X113174026Y-78382500D02*
X113683474Y-78382500D01*
%TO.C,R3*%
X110769750Y-48985724D02*
X110769750Y-48476276D01*
X111814750Y-48985724D02*
X111814750Y-48476276D01*
%TO.C,D1*%
X136388750Y-58357500D02*
X138308750Y-58357500D01*
X138308750Y-58357500D02*
X138308750Y-55497500D01*
X136388750Y-55497500D02*
X136388750Y-58357500D01*
%TO.C,C1*%
X124235017Y-72807500D02*
X123942483Y-72807500D01*
X124235017Y-71787500D02*
X123942483Y-71787500D01*
%TO.C,C6*%
X108898750Y-70753733D02*
X108898750Y-71046267D01*
X107878750Y-70753733D02*
X107878750Y-71046267D01*
%TO.C,R6*%
X113191526Y-79127500D02*
X113700974Y-79127500D01*
X113191526Y-80172500D02*
X113700974Y-80172500D01*
%TO.C,R7*%
X103026250Y-77675276D02*
X103026250Y-78184724D01*
X101981250Y-77675276D02*
X101981250Y-78184724D01*
%TO.C,J7*%
X127228750Y-43600000D02*
X128628750Y-43600000D01*
X127228750Y-45000000D02*
X127228750Y-43600000D01*
X128628750Y-43600000D02*
X128628750Y-45000000D01*
X128628750Y-45000000D02*
X127228750Y-45000000D01*
%TO.C,C10*%
X109348750Y-76536267D02*
X109348750Y-76243733D01*
X110368750Y-76536267D02*
X110368750Y-76243733D01*
D18*
%TO.C,U3*%
X121023750Y-81705000D02*
X117023750Y-81705000D01*
X121023750Y-76605000D02*
X117023750Y-76605000D01*
D19*
X123568750Y-81660000D02*
G75*
G03*
X123568750Y-81660000I-100000J0D01*
G01*
D17*
%TO.C,D5*%
X115061250Y-45690000D02*
X115061250Y-47610000D01*
X115061250Y-47610000D02*
X117921250Y-47610000D01*
X117921250Y-45690000D02*
X115061250Y-45690000D01*
%TO.C,J5*%
X120298750Y-43540000D02*
X121698750Y-43540000D01*
X120298750Y-44940000D02*
X120298750Y-43540000D01*
X121698750Y-43540000D02*
X121698750Y-44940000D01*
X121698750Y-44940000D02*
X120298750Y-44940000D01*
%TD*%
D20*
X108040000Y-47660000D03*
X111188750Y-75560000D03*
X101218750Y-53700000D03*
X89838750Y-71200000D03*
X116068750Y-43380000D03*
X120388750Y-82910000D03*
X111258750Y-44100000D03*
X92998750Y-67560000D03*
X123998750Y-78530000D03*
X98138750Y-78850000D03*
X109528750Y-81680000D03*
X127338750Y-77300000D03*
X137368750Y-49080000D03*
X116798750Y-82900000D03*
X123218750Y-70770000D03*
X134510000Y-71750000D03*
X115678750Y-74620000D03*
X102948750Y-53880000D03*
X113480000Y-53100000D03*
X110940000Y-53100000D03*
X108400000Y-53100000D03*
X116030000Y-37070000D03*
X125638750Y-44300000D03*
X123378750Y-44270000D03*
X121367250Y-40433500D03*
X122367250Y-40433500D03*
X123367250Y-40433500D03*
X124367250Y-40433500D03*
X116418750Y-57770000D03*
X117688750Y-52690000D03*
X118958750Y-57770000D03*
X120228750Y-52690000D03*
X121498750Y-57770000D03*
X122768750Y-52690000D03*
X124038750Y-57770000D03*
X125308750Y-52690000D03*
X126578750Y-57770000D03*
X127848750Y-52690000D03*
X129118750Y-57770000D03*
X130388750Y-52690000D03*
X131658750Y-57770000D03*
X132928750Y-52690000D03*
X134198750Y-57770000D03*
X95964838Y-51610558D03*
X97252433Y-49467640D03*
X113840000Y-37060000D03*
X130368750Y-44300000D03*
X94287139Y-79541531D03*
X96202250Y-81148500D03*
X98117361Y-82755469D03*
X127928750Y-44300000D03*
X120998750Y-44240000D03*
M02*
