%TF.GenerationSoftware,KiCad,Pcbnew,7.0.5-0*%
%TF.CreationDate,2024-11-24T15:49:57-05:00*%
%TF.ProjectId,PCB-diffDC,5043422d-6469-4666-9644-432e6b696361,rev?*%
%TF.SameCoordinates,Original*%
%TF.FileFunction,Copper,L2,Bot*%
%TF.FilePolarity,Positive*%
%FSLAX46Y46*%
G04 Gerber Fmt 4.6, Leading zero omitted, Abs format (unit mm)*
G04 Created by KiCad (PCBNEW 7.0.5-0) date 2024-11-24 15:49:57*
%MOMM*%
%LPD*%
G01*
G04 APERTURE LIST*
G04 Aperture macros list*
%AMRoundRect*
0 Rectangle with rounded corners*
0 $1 Rounding radius*
0 $2 $3 $4 $5 $6 $7 $8 $9 X,Y pos of 4 corners*
0 Add a 4 corners polygon primitive as box body*
4,1,4,$2,$3,$4,$5,$6,$7,$8,$9,$2,$3,0*
0 Add four circle primitives for the rounded corners*
1,1,$1+$1,$2,$3*
1,1,$1+$1,$4,$5*
1,1,$1+$1,$6,$7*
1,1,$1+$1,$8,$9*
0 Add four rect primitives between the rounded corners*
20,1,$1+$1,$2,$3,$4,$5,0*
20,1,$1+$1,$4,$5,$6,$7,0*
20,1,$1+$1,$6,$7,$8,$9,0*
20,1,$1+$1,$8,$9,$2,$3,0*%
%AMHorizOval*
0 Thick line with rounded ends*
0 $1 width*
0 $2 $3 position (X,Y) of the first rounded end (center of the circle)*
0 $4 $5 position (X,Y) of the second rounded end (center of the circle)*
0 Add line between two ends*
20,1,$1,$2,$3,$4,$5,0*
0 Add two circle primitives to create the rounded ends*
1,1,$1,$2,$3*
1,1,$1,$4,$5*%
%AMRotRect*
0 Rectangle, with rotation*
0 The origin of the aperture is its center*
0 $1 length*
0 $2 width*
0 $3 Rotation angle, in degrees counterclockwise*
0 Add horizontal line*
21,1,$1,$2,0,0,$3*%
G04 Aperture macros list end*
%TA.AperFunction,ComponentPad*%
%ADD10C,1.440000*%
%TD*%
%TA.AperFunction,ComponentPad*%
%ADD11R,1.000000X1.000000*%
%TD*%
%TA.AperFunction,ComponentPad*%
%ADD12R,0.850000X0.850000*%
%TD*%
%TA.AperFunction,ComponentPad*%
%ADD13O,0.850000X0.850000*%
%TD*%
%TA.AperFunction,ComponentPad*%
%ADD14R,1.620000X1.620000*%
%TD*%
%TA.AperFunction,ComponentPad*%
%ADD15C,1.620000*%
%TD*%
%TA.AperFunction,ComponentPad*%
%ADD16RoundRect,0.250000X0.333853X-0.900579X0.951898X0.128022X-0.333853X0.900579X-0.951898X-0.128022X0*%
%TD*%
%TA.AperFunction,ComponentPad*%
%ADD17HorizOval,1.700000X-0.128575X0.077256X0.128575X-0.077256X0*%
%TD*%
%TA.AperFunction,ComponentPad*%
%ADD18RotRect,1.408000X1.408000X320.000000*%
%TD*%
%TA.AperFunction,ComponentPad*%
%ADD19C,1.408000*%
%TD*%
%TA.AperFunction,ViaPad*%
%ADD20C,0.800000*%
%TD*%
%TA.AperFunction,Conductor*%
%ADD21C,0.200000*%
%TD*%
%ADD22C,0.350000*%
G04 APERTURE END LIST*
D10*
%TO.P,R4,1*%
%TO.N,Boost_Out*%
X113480000Y-53100000D03*
%TO.P,R4,2*%
%TO.N,Net-(U5-FB)*%
X110940000Y-53100000D03*
%TO.P,R4,3*%
%TO.N,N/C*%
X108400000Y-53100000D03*
%TD*%
D11*
%TO.P,J10,1,Pin_1*%
%TO.N,GND_Arduino1*%
X116030000Y-37070000D03*
%TD*%
%TO.P,J6,1,Pin_1*%
%TO.N,A1*%
X125638750Y-44300000D03*
%TD*%
%TO.P,J3,1,Pin_1*%
%TO.N,+5V Arduino*%
X123378750Y-44270000D03*
%TD*%
D12*
%TO.P,J2,1,Pin_1*%
%TO.N,OUT1*%
X121367250Y-40433500D03*
D13*
%TO.P,J2,2,Pin_2*%
%TO.N,OUT2*%
X122367250Y-40433500D03*
%TO.P,J2,3,Pin_3*%
%TO.N,OUT3*%
X123367250Y-40433500D03*
%TO.P,J2,4,Pin_4*%
%TO.N,OUT4*%
X124367250Y-40433500D03*
%TD*%
D14*
%TO.P,U1,1,SENSE_A*%
%TO.N,GND_Arduino1*%
X116418750Y-57770000D03*
D15*
%TO.P,U1,2,OUT1*%
%TO.N,OUT1*%
X117688750Y-52690000D03*
%TO.P,U1,3,OUT2*%
%TO.N,OUT2*%
X118958750Y-57770000D03*
%TO.P,U1,4,Vs*%
%TO.N,Boost_Out*%
X120228750Y-52690000D03*
%TO.P,U1,5,IN1*%
%TO.N,A0*%
X121498750Y-57770000D03*
%TO.P,U1,6,EnA*%
%TO.N,+5V Arduino*%
X122768750Y-52690000D03*
%TO.P,U1,7,IN2*%
%TO.N,A1*%
X124038750Y-57770000D03*
%TO.P,U1,8,GND*%
%TO.N,GND_Arduino1*%
X125308750Y-52690000D03*
%TO.P,U1,9,Vss*%
%TO.N,+5V Arduino*%
X126578750Y-57770000D03*
%TO.P,U1,10,IN3*%
%TO.N,A2*%
X127848750Y-52690000D03*
%TO.P,U1,11,EnB*%
%TO.N,+5V Arduino*%
X129118750Y-57770000D03*
%TO.P,U1,12,IN4*%
%TO.N,A3*%
X130388750Y-52690000D03*
%TO.P,U1,13,OUT3*%
%TO.N,OUT3*%
X131658750Y-57770000D03*
%TO.P,U1,14,OUT4*%
%TO.N,OUT4*%
X132928750Y-52690000D03*
%TO.P,U1,15,SENSE_B*%
%TO.N,GND_Arduino1*%
X134198750Y-57770000D03*
%TD*%
D16*
%TO.P,J4,1,Pin_1*%
%TO.N,Batt-*%
X95964838Y-51610558D03*
D17*
%TO.P,J4,2,Pin_2*%
%TO.N,Net-(J4-Pin_2)*%
X97252433Y-49467640D03*
%TD*%
D11*
%TO.P,J11,1,Pin_1*%
%TO.N,GND_Arduino1*%
X113840000Y-37060000D03*
%TD*%
%TO.P,J8,1,Pin_1*%
%TO.N,A3*%
X130368750Y-44300000D03*
%TD*%
D18*
%TO.P,SW1,1,A*%
%TO.N,Bat+*%
X94287139Y-79541531D03*
D19*
%TO.P,SW1,2,B*%
X96202250Y-81148500D03*
%TO.P,SW1,3,C*%
%TO.N,Net-(J4-Pin_2)*%
X98117361Y-82755469D03*
%TD*%
D11*
%TO.P,J7,1,Pin_1*%
%TO.N,A2*%
X127928750Y-44300000D03*
%TD*%
%TO.P,J5,1,Pin_1*%
%TO.N,A0*%
X120998750Y-44240000D03*
%TD*%
D20*
%TO.N,GND_Arduino1*%
X108040000Y-47660000D03*
%TO.N,Batt-*%
X111188750Y-75560000D03*
%TO.N,GND_Arduino1*%
X101218750Y-53700000D03*
X89838750Y-71200000D03*
X116068750Y-43380000D03*
X120388750Y-82910000D03*
X111258750Y-44100000D03*
X92998750Y-67560000D03*
X123998750Y-78530000D03*
X98138750Y-78850000D03*
X109528750Y-81680000D03*
X127338750Y-77300000D03*
X137368750Y-49080000D03*
X116798750Y-82900000D03*
X123218750Y-70770000D03*
X134510000Y-71750000D03*
X115678750Y-74620000D03*
%TO.N,+5V Arduino*%
X102948750Y-53880000D03*
%TD*%
D21*
%TO.N,GND_Arduino1*%
X134198750Y-57770000D02*
X134198750Y-71438750D01*
X134198750Y-71438750D02*
X134510000Y-71750000D01*
X134510000Y-71750000D02*
X133278750Y-71750000D01*
X127728750Y-77300000D02*
X127338750Y-77300000D01*
X133278750Y-71750000D02*
X127728750Y-77300000D01*
%TO.N,Batt-*%
X96613928Y-48159306D02*
X97699306Y-48159306D01*
X95964838Y-48808396D02*
X96613928Y-48159306D01*
X97699306Y-48159306D02*
X100518750Y-50978750D01*
X95964838Y-51610558D02*
X95964838Y-48808396D01*
X100518750Y-50978750D02*
X100518750Y-64890000D01*
X100518750Y-64890000D02*
X111188750Y-75560000D01*
%TO.N,Net-(J4-Pin_2)*%
X97252433Y-49467640D02*
X98838750Y-51053957D01*
X98838750Y-51053957D02*
X98838750Y-82034080D01*
X98838750Y-82034080D02*
X98117361Y-82755469D01*
%TO.N,GND_Arduino1*%
X116030000Y-37070000D02*
X116030000Y-43341250D01*
X116030000Y-43341250D02*
X116068750Y-43380000D01*
X108040000Y-47660000D02*
X111258750Y-44441250D01*
X111258750Y-44441250D02*
X111258750Y-44100000D01*
X125308750Y-52690000D02*
X126418750Y-53800000D01*
X115578750Y-81680000D02*
X116798750Y-82900000D01*
X125228750Y-77300000D02*
X123998750Y-78530000D01*
X125308750Y-52690000D02*
X123871750Y-54127000D01*
%TO.N,+5V Arduino*%
X121658750Y-53800000D02*
X103028750Y-53800000D01*
X122768750Y-52690000D02*
X121658750Y-53800000D01*
X103028750Y-53800000D02*
X102948750Y-53880000D01*
%TO.N,GND_Arduino1*%
X123998750Y-79300000D02*
X123998750Y-78530000D01*
X125228750Y-77300000D02*
X123218750Y-75290000D01*
X110818750Y-44100000D02*
X101218750Y-53700000D01*
X120388750Y-82910000D02*
X120378750Y-82900000D01*
X92998750Y-67560000D02*
X89838750Y-70720000D01*
X89838750Y-70720000D02*
X89838750Y-71200000D01*
X89838750Y-71200000D02*
X97488750Y-78850000D01*
X116418750Y-57770000D02*
X105288750Y-57770000D01*
X134198750Y-52250000D02*
X134198750Y-57770000D01*
X120388750Y-82910000D02*
X123998750Y-79300000D01*
X111258750Y-44100000D02*
X110818750Y-44100000D01*
X119368750Y-74620000D02*
X123218750Y-70770000D01*
X120061750Y-54127000D02*
X116418750Y-57770000D01*
X126418750Y-53800000D02*
X130228750Y-53800000D01*
X113840000Y-37060000D02*
X116020000Y-37060000D01*
X111258750Y-44100000D02*
X115348750Y-44100000D01*
X123871750Y-54127000D02*
X120061750Y-54127000D01*
X115678750Y-74620000D02*
X119368750Y-74620000D01*
X115348750Y-44100000D02*
X116068750Y-43380000D01*
X120378750Y-82900000D02*
X116798750Y-82900000D01*
X123218750Y-75290000D02*
X123218750Y-70770000D01*
X97488750Y-78850000D02*
X98138750Y-78850000D01*
X137368750Y-49080000D02*
X134198750Y-52250000D01*
X105288750Y-57770000D02*
X101218750Y-53700000D01*
X130228750Y-53800000D02*
X134198750Y-57770000D01*
X127338750Y-77300000D02*
X125228750Y-77300000D01*
X109528750Y-81680000D02*
X115578750Y-81680000D01*
%TD*%
D22*
X108040000Y-47660000D03*
X111188750Y-75560000D03*
X101218750Y-53700000D03*
X89838750Y-71200000D03*
X116068750Y-43380000D03*
X120388750Y-82910000D03*
X111258750Y-44100000D03*
X92998750Y-67560000D03*
X123998750Y-78530000D03*
X98138750Y-78850000D03*
X109528750Y-81680000D03*
X127338750Y-77300000D03*
X137368750Y-49080000D03*
X116798750Y-82900000D03*
X123218750Y-70770000D03*
X134510000Y-71750000D03*
X115678750Y-74620000D03*
X102948750Y-53880000D03*
X113480000Y-53100000D03*
X110940000Y-53100000D03*
X108400000Y-53100000D03*
X116030000Y-37070000D03*
X125638750Y-44300000D03*
X123378750Y-44270000D03*
X121367250Y-40433500D03*
X122367250Y-40433500D03*
X123367250Y-40433500D03*
X124367250Y-40433500D03*
X116418750Y-57770000D03*
X117688750Y-52690000D03*
X118958750Y-57770000D03*
X120228750Y-52690000D03*
X121498750Y-57770000D03*
X122768750Y-52690000D03*
X124038750Y-57770000D03*
X125308750Y-52690000D03*
X126578750Y-57770000D03*
X127848750Y-52690000D03*
X129118750Y-57770000D03*
X130388750Y-52690000D03*
X131658750Y-57770000D03*
X132928750Y-52690000D03*
X134198750Y-57770000D03*
X95964838Y-51610558D03*
X97252433Y-49467640D03*
X113840000Y-37060000D03*
X130368750Y-44300000D03*
X94287139Y-79541531D03*
X96202250Y-81148500D03*
X98117361Y-82755469D03*
X127928750Y-44300000D03*
X120998750Y-44240000D03*
M02*
