M48
METRIC,TZ
T1C0.400
T2C0.500
T3C1.000
T4C1.080
%
G90
G05
T1
X48210Y-31920
X51110Y-60000
X51830Y-57690
X53610Y-65540
X54580Y-71950
X57580Y-40800
X57900Y-78310
X60630Y-33850
X62590Y-68510
X62780Y-65590
X63440Y-76720
X64190Y-28920
X67120Y-76741
X67330Y-72110
X67620Y-35630
X68880Y-44210
X70970Y-41850
X71250Y-78650
X74830Y-56600
T2
X39350Y-44080
X39350Y-45080
X39350Y-46080
X39350Y-47080
X41310Y-55780
X41320Y-53590
X44790Y-49950
X44820Y-47570
X44850Y-40830
X44850Y-43020
X44850Y-45270
T3
X80908Y-58470
X80908Y-60970
T4
X50960Y-35620
X50960Y-38160
X50960Y-40700
X50960Y-43240
X50960Y-45780
X50960Y-48320
X50960Y-50860
X56040Y-34350
X56040Y-36890
X56040Y-39430
X56040Y-41970
X56040Y-44510
X56040Y-47050
X56040Y-49590
X56040Y-52130
T0
M30
