%TF.GenerationSoftware,KiCad,Pcbnew,7.0.5-0*%
%TF.CreationDate,2024-11-16T18:44:09-05:00*%
%TF.ProjectId,PCB_design,5043425f-6465-4736-9967-6e2e6b696361,rev?*%
%TF.SameCoordinates,Original*%
%TF.FileFunction,Legend,Top*%
%TF.FilePolarity,Positive*%
%FSLAX46Y46*%
G04 Gerber Fmt 4.6, Leading zero omitted, Abs format (unit mm)*
G04 Created by KiCad (PCBNEW 7.0.5-0) date 2024-11-16 18:44:09*
%MOMM*%
%LPD*%
G01*
G04 APERTURE LIST*
%ADD10C,0.300000*%
%ADD11C,0.100000*%
%ADD12C,0.150000*%
%ADD13C,0.037500*%
%ADD14C,0.020000*%
%ADD15C,0.050000*%
%ADD16C,0.254000*%
%ADD17C,0.040000*%
%ADD18C,0.200000*%
%ADD19C,0.120000*%
%ADD20C,0.127000*%
%ADD21C,0.350000*%
G04 APERTURE END LIST*
D10*
X75783082Y-74752257D02*
X76497368Y-74752257D01*
X75640225Y-75180828D02*
X76140225Y-73680828D01*
X76140225Y-73680828D02*
X76640225Y-75180828D01*
D11*
%TO.C,U4*%
X57828109Y-70010952D02*
X58232871Y-70010952D01*
X58232871Y-70010952D02*
X58280490Y-69987142D01*
X58280490Y-69987142D02*
X58304300Y-69963333D01*
X58304300Y-69963333D02*
X58328109Y-69915714D01*
X58328109Y-69915714D02*
X58328109Y-69820476D01*
X58328109Y-69820476D02*
X58304300Y-69772857D01*
X58304300Y-69772857D02*
X58280490Y-69749047D01*
X58280490Y-69749047D02*
X58232871Y-69725238D01*
X58232871Y-69725238D02*
X57828109Y-69725238D01*
X57994776Y-69272856D02*
X58328109Y-69272856D01*
X57804300Y-69391904D02*
X58161442Y-69510951D01*
X58161442Y-69510951D02*
X58161442Y-69201428D01*
D12*
%TO.C,R2*%
X69763333Y-80464819D02*
X69430000Y-79988628D01*
X69191905Y-80464819D02*
X69191905Y-79464819D01*
X69191905Y-79464819D02*
X69572857Y-79464819D01*
X69572857Y-79464819D02*
X69668095Y-79512438D01*
X69668095Y-79512438D02*
X69715714Y-79560057D01*
X69715714Y-79560057D02*
X69763333Y-79655295D01*
X69763333Y-79655295D02*
X69763333Y-79798152D01*
X69763333Y-79798152D02*
X69715714Y-79893390D01*
X69715714Y-79893390D02*
X69668095Y-79941009D01*
X69668095Y-79941009D02*
X69572857Y-79988628D01*
X69572857Y-79988628D02*
X69191905Y-79988628D01*
X70144286Y-79560057D02*
X70191905Y-79512438D01*
X70191905Y-79512438D02*
X70287143Y-79464819D01*
X70287143Y-79464819D02*
X70525238Y-79464819D01*
X70525238Y-79464819D02*
X70620476Y-79512438D01*
X70620476Y-79512438D02*
X70668095Y-79560057D01*
X70668095Y-79560057D02*
X70715714Y-79655295D01*
X70715714Y-79655295D02*
X70715714Y-79750533D01*
X70715714Y-79750533D02*
X70668095Y-79893390D01*
X70668095Y-79893390D02*
X70096667Y-80464819D01*
X70096667Y-80464819D02*
X70715714Y-80464819D01*
%TO.C,R1*%
X61733333Y-77384819D02*
X61400000Y-76908628D01*
X61161905Y-77384819D02*
X61161905Y-76384819D01*
X61161905Y-76384819D02*
X61542857Y-76384819D01*
X61542857Y-76384819D02*
X61638095Y-76432438D01*
X61638095Y-76432438D02*
X61685714Y-76480057D01*
X61685714Y-76480057D02*
X61733333Y-76575295D01*
X61733333Y-76575295D02*
X61733333Y-76718152D01*
X61733333Y-76718152D02*
X61685714Y-76813390D01*
X61685714Y-76813390D02*
X61638095Y-76861009D01*
X61638095Y-76861009D02*
X61542857Y-76908628D01*
X61542857Y-76908628D02*
X61161905Y-76908628D01*
X62685714Y-77384819D02*
X62114286Y-77384819D01*
X62400000Y-77384819D02*
X62400000Y-76384819D01*
X62400000Y-76384819D02*
X62304762Y-76527676D01*
X62304762Y-76527676D02*
X62209524Y-76622914D01*
X62209524Y-76622914D02*
X62114286Y-76670533D01*
%TO.C,J9*%
X60781666Y-78342319D02*
X60781666Y-79056604D01*
X60781666Y-79056604D02*
X60734047Y-79199461D01*
X60734047Y-79199461D02*
X60638809Y-79294700D01*
X60638809Y-79294700D02*
X60495952Y-79342319D01*
X60495952Y-79342319D02*
X60400714Y-79342319D01*
X61305476Y-79342319D02*
X61495952Y-79342319D01*
X61495952Y-79342319D02*
X61591190Y-79294700D01*
X61591190Y-79294700D02*
X61638809Y-79247080D01*
X61638809Y-79247080D02*
X61734047Y-79104223D01*
X61734047Y-79104223D02*
X61781666Y-78913747D01*
X61781666Y-78913747D02*
X61781666Y-78532795D01*
X61781666Y-78532795D02*
X61734047Y-78437557D01*
X61734047Y-78437557D02*
X61686428Y-78389938D01*
X61686428Y-78389938D02*
X61591190Y-78342319D01*
X61591190Y-78342319D02*
X61400714Y-78342319D01*
X61400714Y-78342319D02*
X61305476Y-78389938D01*
X61305476Y-78389938D02*
X61257857Y-78437557D01*
X61257857Y-78437557D02*
X61210238Y-78532795D01*
X61210238Y-78532795D02*
X61210238Y-78770890D01*
X61210238Y-78770890D02*
X61257857Y-78866128D01*
X61257857Y-78866128D02*
X61305476Y-78913747D01*
X61305476Y-78913747D02*
X61400714Y-78961366D01*
X61400714Y-78961366D02*
X61591190Y-78961366D01*
X61591190Y-78961366D02*
X61686428Y-78913747D01*
X61686428Y-78913747D02*
X61734047Y-78866128D01*
X61734047Y-78866128D02*
X61781666Y-78770890D01*
%TO.C,VR1*%
X77540476Y-52022319D02*
X77873809Y-53022319D01*
X77873809Y-53022319D02*
X78207142Y-52022319D01*
X79111904Y-53022319D02*
X78778571Y-52546128D01*
X78540476Y-53022319D02*
X78540476Y-52022319D01*
X78540476Y-52022319D02*
X78921428Y-52022319D01*
X78921428Y-52022319D02*
X79016666Y-52069938D01*
X79016666Y-52069938D02*
X79064285Y-52117557D01*
X79064285Y-52117557D02*
X79111904Y-52212795D01*
X79111904Y-52212795D02*
X79111904Y-52355652D01*
X79111904Y-52355652D02*
X79064285Y-52450890D01*
X79064285Y-52450890D02*
X79016666Y-52498509D01*
X79016666Y-52498509D02*
X78921428Y-52546128D01*
X78921428Y-52546128D02*
X78540476Y-52546128D01*
X80064285Y-53022319D02*
X79492857Y-53022319D01*
X79778571Y-53022319D02*
X79778571Y-52022319D01*
X79778571Y-52022319D02*
X79683333Y-52165176D01*
X79683333Y-52165176D02*
X79588095Y-52260414D01*
X79588095Y-52260414D02*
X79492857Y-52308033D01*
%TO.C,U1*%
X52526595Y-36338819D02*
X52526595Y-37148342D01*
X52526595Y-37148342D02*
X52574214Y-37243580D01*
X52574214Y-37243580D02*
X52621833Y-37291200D01*
X52621833Y-37291200D02*
X52717071Y-37338819D01*
X52717071Y-37338819D02*
X52907547Y-37338819D01*
X52907547Y-37338819D02*
X53002785Y-37291200D01*
X53002785Y-37291200D02*
X53050404Y-37243580D01*
X53050404Y-37243580D02*
X53098023Y-37148342D01*
X53098023Y-37148342D02*
X53098023Y-36338819D01*
X54098023Y-37338819D02*
X53526595Y-37338819D01*
X53812309Y-37338819D02*
X53812309Y-36338819D01*
X53812309Y-36338819D02*
X53717071Y-36481676D01*
X53717071Y-36481676D02*
X53621833Y-36576914D01*
X53621833Y-36576914D02*
X53526595Y-36624533D01*
%TO.C,J11*%
X40954819Y-58839523D02*
X41669104Y-58839523D01*
X41669104Y-58839523D02*
X41811961Y-58887142D01*
X41811961Y-58887142D02*
X41907200Y-58982380D01*
X41907200Y-58982380D02*
X41954819Y-59125237D01*
X41954819Y-59125237D02*
X41954819Y-59220475D01*
X41954819Y-57839523D02*
X41954819Y-58410951D01*
X41954819Y-58125237D02*
X40954819Y-58125237D01*
X40954819Y-58125237D02*
X41097676Y-58220475D01*
X41097676Y-58220475D02*
X41192914Y-58315713D01*
X41192914Y-58315713D02*
X41240533Y-58410951D01*
X41954819Y-56887142D02*
X41954819Y-57458570D01*
X41954819Y-57172856D02*
X40954819Y-57172856D01*
X40954819Y-57172856D02*
X41097676Y-57268094D01*
X41097676Y-57268094D02*
X41192914Y-57363332D01*
X41192914Y-57363332D02*
X41240533Y-57458570D01*
%TO.C,J8*%
X44264819Y-39183333D02*
X44979104Y-39183333D01*
X44979104Y-39183333D02*
X45121961Y-39230952D01*
X45121961Y-39230952D02*
X45217200Y-39326190D01*
X45217200Y-39326190D02*
X45264819Y-39469047D01*
X45264819Y-39469047D02*
X45264819Y-39564285D01*
X44693390Y-38564285D02*
X44645771Y-38659523D01*
X44645771Y-38659523D02*
X44598152Y-38707142D01*
X44598152Y-38707142D02*
X44502914Y-38754761D01*
X44502914Y-38754761D02*
X44455295Y-38754761D01*
X44455295Y-38754761D02*
X44360057Y-38707142D01*
X44360057Y-38707142D02*
X44312438Y-38659523D01*
X44312438Y-38659523D02*
X44264819Y-38564285D01*
X44264819Y-38564285D02*
X44264819Y-38373809D01*
X44264819Y-38373809D02*
X44312438Y-38278571D01*
X44312438Y-38278571D02*
X44360057Y-38230952D01*
X44360057Y-38230952D02*
X44455295Y-38183333D01*
X44455295Y-38183333D02*
X44502914Y-38183333D01*
X44502914Y-38183333D02*
X44598152Y-38230952D01*
X44598152Y-38230952D02*
X44645771Y-38278571D01*
X44645771Y-38278571D02*
X44693390Y-38373809D01*
X44693390Y-38373809D02*
X44693390Y-38564285D01*
X44693390Y-38564285D02*
X44741009Y-38659523D01*
X44741009Y-38659523D02*
X44788628Y-38707142D01*
X44788628Y-38707142D02*
X44883866Y-38754761D01*
X44883866Y-38754761D02*
X45074342Y-38754761D01*
X45074342Y-38754761D02*
X45169580Y-38707142D01*
X45169580Y-38707142D02*
X45217200Y-38659523D01*
X45217200Y-38659523D02*
X45264819Y-38564285D01*
X45264819Y-38564285D02*
X45264819Y-38373809D01*
X45264819Y-38373809D02*
X45217200Y-38278571D01*
X45217200Y-38278571D02*
X45169580Y-38230952D01*
X45169580Y-38230952D02*
X45074342Y-38183333D01*
X45074342Y-38183333D02*
X44883866Y-38183333D01*
X44883866Y-38183333D02*
X44788628Y-38230952D01*
X44788628Y-38230952D02*
X44741009Y-38278571D01*
X44741009Y-38278571D02*
X44693390Y-38373809D01*
%TO.C,J7*%
X42856819Y-43353333D02*
X43571104Y-43353333D01*
X43571104Y-43353333D02*
X43713961Y-43400952D01*
X43713961Y-43400952D02*
X43809200Y-43496190D01*
X43809200Y-43496190D02*
X43856819Y-43639047D01*
X43856819Y-43639047D02*
X43856819Y-43734285D01*
X42856819Y-42972380D02*
X42856819Y-42305714D01*
X42856819Y-42305714D02*
X43856819Y-42734285D01*
%TO.C,J6*%
X42856819Y-45603333D02*
X43571104Y-45603333D01*
X43571104Y-45603333D02*
X43713961Y-45650952D01*
X43713961Y-45650952D02*
X43809200Y-45746190D01*
X43809200Y-45746190D02*
X43856819Y-45889047D01*
X43856819Y-45889047D02*
X43856819Y-45984285D01*
X42856819Y-44698571D02*
X42856819Y-44889047D01*
X42856819Y-44889047D02*
X42904438Y-44984285D01*
X42904438Y-44984285D02*
X42952057Y-45031904D01*
X42952057Y-45031904D02*
X43094914Y-45127142D01*
X43094914Y-45127142D02*
X43285390Y-45174761D01*
X43285390Y-45174761D02*
X43666342Y-45174761D01*
X43666342Y-45174761D02*
X43761580Y-45127142D01*
X43761580Y-45127142D02*
X43809200Y-45079523D01*
X43809200Y-45079523D02*
X43856819Y-44984285D01*
X43856819Y-44984285D02*
X43856819Y-44793809D01*
X43856819Y-44793809D02*
X43809200Y-44698571D01*
X43809200Y-44698571D02*
X43761580Y-44650952D01*
X43761580Y-44650952D02*
X43666342Y-44603333D01*
X43666342Y-44603333D02*
X43428247Y-44603333D01*
X43428247Y-44603333D02*
X43333009Y-44650952D01*
X43333009Y-44650952D02*
X43285390Y-44698571D01*
X43285390Y-44698571D02*
X43237771Y-44793809D01*
X43237771Y-44793809D02*
X43237771Y-44984285D01*
X43237771Y-44984285D02*
X43285390Y-45079523D01*
X43285390Y-45079523D02*
X43333009Y-45127142D01*
X43333009Y-45127142D02*
X43428247Y-45174761D01*
%TO.C,J5*%
X42796819Y-50283333D02*
X43511104Y-50283333D01*
X43511104Y-50283333D02*
X43653961Y-50330952D01*
X43653961Y-50330952D02*
X43749200Y-50426190D01*
X43749200Y-50426190D02*
X43796819Y-50569047D01*
X43796819Y-50569047D02*
X43796819Y-50664285D01*
X42796819Y-49330952D02*
X42796819Y-49807142D01*
X42796819Y-49807142D02*
X43273009Y-49854761D01*
X43273009Y-49854761D02*
X43225390Y-49807142D01*
X43225390Y-49807142D02*
X43177771Y-49711904D01*
X43177771Y-49711904D02*
X43177771Y-49473809D01*
X43177771Y-49473809D02*
X43225390Y-49378571D01*
X43225390Y-49378571D02*
X43273009Y-49330952D01*
X43273009Y-49330952D02*
X43368247Y-49283333D01*
X43368247Y-49283333D02*
X43606342Y-49283333D01*
X43606342Y-49283333D02*
X43701580Y-49330952D01*
X43701580Y-49330952D02*
X43749200Y-49378571D01*
X43749200Y-49378571D02*
X43796819Y-49473809D01*
X43796819Y-49473809D02*
X43796819Y-49711904D01*
X43796819Y-49711904D02*
X43749200Y-49807142D01*
X43749200Y-49807142D02*
X43701580Y-49854761D01*
%TO.C,J3*%
X44154819Y-45873333D02*
X44869104Y-45873333D01*
X44869104Y-45873333D02*
X45011961Y-45920952D01*
X45011961Y-45920952D02*
X45107200Y-46016190D01*
X45107200Y-46016190D02*
X45154819Y-46159047D01*
X45154819Y-46159047D02*
X45154819Y-46254285D01*
X44154819Y-45492380D02*
X44154819Y-44873333D01*
X44154819Y-44873333D02*
X44535771Y-45206666D01*
X44535771Y-45206666D02*
X44535771Y-45063809D01*
X44535771Y-45063809D02*
X44583390Y-44968571D01*
X44583390Y-44968571D02*
X44631009Y-44920952D01*
X44631009Y-44920952D02*
X44726247Y-44873333D01*
X44726247Y-44873333D02*
X44964342Y-44873333D01*
X44964342Y-44873333D02*
X45059580Y-44920952D01*
X45059580Y-44920952D02*
X45107200Y-44968571D01*
X45107200Y-44968571D02*
X45154819Y-45063809D01*
X45154819Y-45063809D02*
X45154819Y-45349523D01*
X45154819Y-45349523D02*
X45107200Y-45444761D01*
X45107200Y-45444761D02*
X45059580Y-45492380D01*
%TO.C,J2*%
X39016666Y-48094819D02*
X39016666Y-48809104D01*
X39016666Y-48809104D02*
X38969047Y-48951961D01*
X38969047Y-48951961D02*
X38873809Y-49047200D01*
X38873809Y-49047200D02*
X38730952Y-49094819D01*
X38730952Y-49094819D02*
X38635714Y-49094819D01*
X39445238Y-48190057D02*
X39492857Y-48142438D01*
X39492857Y-48142438D02*
X39588095Y-48094819D01*
X39588095Y-48094819D02*
X39826190Y-48094819D01*
X39826190Y-48094819D02*
X39921428Y-48142438D01*
X39921428Y-48142438D02*
X39969047Y-48190057D01*
X39969047Y-48190057D02*
X40016666Y-48285295D01*
X40016666Y-48285295D02*
X40016666Y-48380533D01*
X40016666Y-48380533D02*
X39969047Y-48523390D01*
X39969047Y-48523390D02*
X39397619Y-49094819D01*
X39397619Y-49094819D02*
X40016666Y-49094819D01*
%TO.C,U2*%
X58778095Y-41364819D02*
X58778095Y-42174342D01*
X58778095Y-42174342D02*
X58825714Y-42269580D01*
X58825714Y-42269580D02*
X58873333Y-42317200D01*
X58873333Y-42317200D02*
X58968571Y-42364819D01*
X58968571Y-42364819D02*
X59159047Y-42364819D01*
X59159047Y-42364819D02*
X59254285Y-42317200D01*
X59254285Y-42317200D02*
X59301904Y-42269580D01*
X59301904Y-42269580D02*
X59349523Y-42174342D01*
X59349523Y-42174342D02*
X59349523Y-41364819D01*
X59778095Y-41460057D02*
X59825714Y-41412438D01*
X59825714Y-41412438D02*
X59920952Y-41364819D01*
X59920952Y-41364819D02*
X60159047Y-41364819D01*
X60159047Y-41364819D02*
X60254285Y-41412438D01*
X60254285Y-41412438D02*
X60301904Y-41460057D01*
X60301904Y-41460057D02*
X60349523Y-41555295D01*
X60349523Y-41555295D02*
X60349523Y-41650533D01*
X60349523Y-41650533D02*
X60301904Y-41793390D01*
X60301904Y-41793390D02*
X59730476Y-42364819D01*
X59730476Y-42364819D02*
X60349523Y-42364819D01*
D13*
%TO.C,D3*%
X52981786Y-30201192D02*
X52981786Y-30051192D01*
X52981786Y-30051192D02*
X53017500Y-30051192D01*
X53017500Y-30051192D02*
X53038929Y-30058335D01*
X53038929Y-30058335D02*
X53053214Y-30072621D01*
X53053214Y-30072621D02*
X53060357Y-30086907D01*
X53060357Y-30086907D02*
X53067500Y-30115478D01*
X53067500Y-30115478D02*
X53067500Y-30136907D01*
X53067500Y-30136907D02*
X53060357Y-30165478D01*
X53060357Y-30165478D02*
X53053214Y-30179764D01*
X53053214Y-30179764D02*
X53038929Y-30194050D01*
X53038929Y-30194050D02*
X53017500Y-30201192D01*
X53017500Y-30201192D02*
X52981786Y-30201192D01*
X53117500Y-30051192D02*
X53210357Y-30051192D01*
X53210357Y-30051192D02*
X53160357Y-30108335D01*
X53160357Y-30108335D02*
X53181786Y-30108335D01*
X53181786Y-30108335D02*
X53196072Y-30115478D01*
X53196072Y-30115478D02*
X53203214Y-30122621D01*
X53203214Y-30122621D02*
X53210357Y-30136907D01*
X53210357Y-30136907D02*
X53210357Y-30172621D01*
X53210357Y-30172621D02*
X53203214Y-30186907D01*
X53203214Y-30186907D02*
X53196072Y-30194050D01*
X53196072Y-30194050D02*
X53181786Y-30201192D01*
X53181786Y-30201192D02*
X53138929Y-30201192D01*
X53138929Y-30201192D02*
X53124643Y-30194050D01*
X53124643Y-30194050D02*
X53117500Y-30186907D01*
%TO.C,D4*%
X56849286Y-31937442D02*
X56849286Y-31787442D01*
X56849286Y-31787442D02*
X56885000Y-31787442D01*
X56885000Y-31787442D02*
X56906429Y-31794585D01*
X56906429Y-31794585D02*
X56920714Y-31808871D01*
X56920714Y-31808871D02*
X56927857Y-31823157D01*
X56927857Y-31823157D02*
X56935000Y-31851728D01*
X56935000Y-31851728D02*
X56935000Y-31873157D01*
X56935000Y-31873157D02*
X56927857Y-31901728D01*
X56927857Y-31901728D02*
X56920714Y-31916014D01*
X56920714Y-31916014D02*
X56906429Y-31930300D01*
X56906429Y-31930300D02*
X56885000Y-31937442D01*
X56885000Y-31937442D02*
X56849286Y-31937442D01*
X57063572Y-31837442D02*
X57063572Y-31937442D01*
X57027857Y-31780300D02*
X56992143Y-31887442D01*
X56992143Y-31887442D02*
X57085000Y-31887442D01*
D14*
%TO.C,R6*%
X67046666Y-74230269D02*
X66880000Y-73992174D01*
X66760952Y-74230269D02*
X66760952Y-73730269D01*
X66760952Y-73730269D02*
X66951428Y-73730269D01*
X66951428Y-73730269D02*
X66999047Y-73754079D01*
X66999047Y-73754079D02*
X67022857Y-73777888D01*
X67022857Y-73777888D02*
X67046666Y-73825507D01*
X67046666Y-73825507D02*
X67046666Y-73896936D01*
X67046666Y-73896936D02*
X67022857Y-73944555D01*
X67022857Y-73944555D02*
X66999047Y-73968364D01*
X66999047Y-73968364D02*
X66951428Y-73992174D01*
X66951428Y-73992174D02*
X66760952Y-73992174D01*
X67475238Y-73730269D02*
X67380000Y-73730269D01*
X67380000Y-73730269D02*
X67332381Y-73754079D01*
X67332381Y-73754079D02*
X67308571Y-73777888D01*
X67308571Y-73777888D02*
X67260952Y-73849317D01*
X67260952Y-73849317D02*
X67237143Y-73944555D01*
X67237143Y-73944555D02*
X67237143Y-74135031D01*
X67237143Y-74135031D02*
X67260952Y-74182650D01*
X67260952Y-74182650D02*
X67284762Y-74206460D01*
X67284762Y-74206460D02*
X67332381Y-74230269D01*
X67332381Y-74230269D02*
X67427619Y-74230269D01*
X67427619Y-74230269D02*
X67475238Y-74206460D01*
X67475238Y-74206460D02*
X67499047Y-74182650D01*
X67499047Y-74182650D02*
X67522857Y-74135031D01*
X67522857Y-74135031D02*
X67522857Y-74015983D01*
X67522857Y-74015983D02*
X67499047Y-73968364D01*
X67499047Y-73968364D02*
X67475238Y-73944555D01*
X67475238Y-73944555D02*
X67427619Y-73920745D01*
X67427619Y-73920745D02*
X67332381Y-73920745D01*
X67332381Y-73920745D02*
X67284762Y-73944555D01*
X67284762Y-73944555D02*
X67260952Y-73968364D01*
X67260952Y-73968364D02*
X67237143Y-74015983D01*
D15*
%TO.C,R3*%
X72076666Y-57248709D02*
X71910000Y-57010614D01*
X71790952Y-57248709D02*
X71790952Y-56748709D01*
X71790952Y-56748709D02*
X71981428Y-56748709D01*
X71981428Y-56748709D02*
X72029047Y-56772519D01*
X72029047Y-56772519D02*
X72052857Y-56796328D01*
X72052857Y-56796328D02*
X72076666Y-56843947D01*
X72076666Y-56843947D02*
X72076666Y-56915376D01*
X72076666Y-56915376D02*
X72052857Y-56962995D01*
X72052857Y-56962995D02*
X72029047Y-56986804D01*
X72029047Y-56986804D02*
X71981428Y-57010614D01*
X71981428Y-57010614D02*
X71790952Y-57010614D01*
X72243333Y-56748709D02*
X72552857Y-56748709D01*
X72552857Y-56748709D02*
X72386190Y-56939185D01*
X72386190Y-56939185D02*
X72457619Y-56939185D01*
X72457619Y-56939185D02*
X72505238Y-56962995D01*
X72505238Y-56962995D02*
X72529047Y-56986804D01*
X72529047Y-56986804D02*
X72552857Y-57034423D01*
X72552857Y-57034423D02*
X72552857Y-57153471D01*
X72552857Y-57153471D02*
X72529047Y-57201090D01*
X72529047Y-57201090D02*
X72505238Y-57224900D01*
X72505238Y-57224900D02*
X72457619Y-57248709D01*
X72457619Y-57248709D02*
X72314762Y-57248709D01*
X72314762Y-57248709D02*
X72267143Y-57224900D01*
X72267143Y-57224900D02*
X72243333Y-57201090D01*
D13*
%TO.C,D1*%
X52741786Y-30227442D02*
X52741786Y-30077442D01*
X52741786Y-30077442D02*
X52777500Y-30077442D01*
X52777500Y-30077442D02*
X52798929Y-30084585D01*
X52798929Y-30084585D02*
X52813214Y-30098871D01*
X52813214Y-30098871D02*
X52820357Y-30113157D01*
X52820357Y-30113157D02*
X52827500Y-30141728D01*
X52827500Y-30141728D02*
X52827500Y-30163157D01*
X52827500Y-30163157D02*
X52820357Y-30191728D01*
X52820357Y-30191728D02*
X52813214Y-30206014D01*
X52813214Y-30206014D02*
X52798929Y-30220300D01*
X52798929Y-30220300D02*
X52777500Y-30227442D01*
X52777500Y-30227442D02*
X52741786Y-30227442D01*
X52970357Y-30227442D02*
X52884643Y-30227442D01*
X52927500Y-30227442D02*
X52927500Y-30077442D01*
X52927500Y-30077442D02*
X52913214Y-30098871D01*
X52913214Y-30098871D02*
X52898929Y-30113157D01*
X52898929Y-30113157D02*
X52884643Y-30120300D01*
D16*
%TO.C,C4*%
X70528333Y-65753365D02*
X70467857Y-65813842D01*
X70467857Y-65813842D02*
X70286428Y-65874318D01*
X70286428Y-65874318D02*
X70165476Y-65874318D01*
X70165476Y-65874318D02*
X69984047Y-65813842D01*
X69984047Y-65813842D02*
X69863095Y-65692889D01*
X69863095Y-65692889D02*
X69802618Y-65571937D01*
X69802618Y-65571937D02*
X69742142Y-65330032D01*
X69742142Y-65330032D02*
X69742142Y-65148603D01*
X69742142Y-65148603D02*
X69802618Y-64906699D01*
X69802618Y-64906699D02*
X69863095Y-64785746D01*
X69863095Y-64785746D02*
X69984047Y-64664794D01*
X69984047Y-64664794D02*
X70165476Y-64604318D01*
X70165476Y-64604318D02*
X70286428Y-64604318D01*
X70286428Y-64604318D02*
X70467857Y-64664794D01*
X70467857Y-64664794D02*
X70528333Y-64725270D01*
X71616904Y-65027651D02*
X71616904Y-65874318D01*
X71314523Y-64543842D02*
X71012142Y-65450984D01*
X71012142Y-65450984D02*
X71798333Y-65450984D01*
D12*
%TO.C,C2*%
X49290833Y-60109580D02*
X49243214Y-60157200D01*
X49243214Y-60157200D02*
X49100357Y-60204819D01*
X49100357Y-60204819D02*
X49005119Y-60204819D01*
X49005119Y-60204819D02*
X48862262Y-60157200D01*
X48862262Y-60157200D02*
X48767024Y-60061961D01*
X48767024Y-60061961D02*
X48719405Y-59966723D01*
X48719405Y-59966723D02*
X48671786Y-59776247D01*
X48671786Y-59776247D02*
X48671786Y-59633390D01*
X48671786Y-59633390D02*
X48719405Y-59442914D01*
X48719405Y-59442914D02*
X48767024Y-59347676D01*
X48767024Y-59347676D02*
X48862262Y-59252438D01*
X48862262Y-59252438D02*
X49005119Y-59204819D01*
X49005119Y-59204819D02*
X49100357Y-59204819D01*
X49100357Y-59204819D02*
X49243214Y-59252438D01*
X49243214Y-59252438D02*
X49290833Y-59300057D01*
X49671786Y-59300057D02*
X49719405Y-59252438D01*
X49719405Y-59252438D02*
X49814643Y-59204819D01*
X49814643Y-59204819D02*
X50052738Y-59204819D01*
X50052738Y-59204819D02*
X50147976Y-59252438D01*
X50147976Y-59252438D02*
X50195595Y-59300057D01*
X50195595Y-59300057D02*
X50243214Y-59395295D01*
X50243214Y-59395295D02*
X50243214Y-59490533D01*
X50243214Y-59490533D02*
X50195595Y-59633390D01*
X50195595Y-59633390D02*
X49624167Y-60204819D01*
X49624167Y-60204819D02*
X50243214Y-60204819D01*
D16*
%TO.C,D9*%
X62224318Y-49937381D02*
X60954318Y-49937381D01*
X60954318Y-49937381D02*
X60954318Y-49635000D01*
X60954318Y-49635000D02*
X61014794Y-49453571D01*
X61014794Y-49453571D02*
X61135746Y-49332619D01*
X61135746Y-49332619D02*
X61256699Y-49272142D01*
X61256699Y-49272142D02*
X61498603Y-49211666D01*
X61498603Y-49211666D02*
X61680032Y-49211666D01*
X61680032Y-49211666D02*
X61921937Y-49272142D01*
X61921937Y-49272142D02*
X62042889Y-49332619D01*
X62042889Y-49332619D02*
X62163842Y-49453571D01*
X62163842Y-49453571D02*
X62224318Y-49635000D01*
X62224318Y-49635000D02*
X62224318Y-49937381D01*
X62224318Y-48606904D02*
X62224318Y-48365000D01*
X62224318Y-48365000D02*
X62163842Y-48244047D01*
X62163842Y-48244047D02*
X62103365Y-48183571D01*
X62103365Y-48183571D02*
X61921937Y-48062619D01*
X61921937Y-48062619D02*
X61680032Y-48002142D01*
X61680032Y-48002142D02*
X61196222Y-48002142D01*
X61196222Y-48002142D02*
X61075270Y-48062619D01*
X61075270Y-48062619D02*
X61014794Y-48123095D01*
X61014794Y-48123095D02*
X60954318Y-48244047D01*
X60954318Y-48244047D02*
X60954318Y-48485952D01*
X60954318Y-48485952D02*
X61014794Y-48606904D01*
X61014794Y-48606904D02*
X61075270Y-48667381D01*
X61075270Y-48667381D02*
X61196222Y-48727857D01*
X61196222Y-48727857D02*
X61498603Y-48727857D01*
X61498603Y-48727857D02*
X61619556Y-48667381D01*
X61619556Y-48667381D02*
X61680032Y-48606904D01*
X61680032Y-48606904D02*
X61740508Y-48485952D01*
X61740508Y-48485952D02*
X61740508Y-48244047D01*
X61740508Y-48244047D02*
X61680032Y-48123095D01*
X61680032Y-48123095D02*
X61619556Y-48062619D01*
X61619556Y-48062619D02*
X61498603Y-48002142D01*
D17*
%TO.C,R8*%
X65049166Y-73190443D02*
X64982500Y-73095205D01*
X64934881Y-73190443D02*
X64934881Y-72990443D01*
X64934881Y-72990443D02*
X65011071Y-72990443D01*
X65011071Y-72990443D02*
X65030119Y-72999967D01*
X65030119Y-72999967D02*
X65039642Y-73009491D01*
X65039642Y-73009491D02*
X65049166Y-73028539D01*
X65049166Y-73028539D02*
X65049166Y-73057110D01*
X65049166Y-73057110D02*
X65039642Y-73076158D01*
X65039642Y-73076158D02*
X65030119Y-73085681D01*
X65030119Y-73085681D02*
X65011071Y-73095205D01*
X65011071Y-73095205D02*
X64934881Y-73095205D01*
X65163452Y-73076158D02*
X65144404Y-73066634D01*
X65144404Y-73066634D02*
X65134881Y-73057110D01*
X65134881Y-73057110D02*
X65125357Y-73038062D01*
X65125357Y-73038062D02*
X65125357Y-73028539D01*
X65125357Y-73028539D02*
X65134881Y-73009491D01*
X65134881Y-73009491D02*
X65144404Y-72999967D01*
X65144404Y-72999967D02*
X65163452Y-72990443D01*
X65163452Y-72990443D02*
X65201547Y-72990443D01*
X65201547Y-72990443D02*
X65220595Y-72999967D01*
X65220595Y-72999967D02*
X65230119Y-73009491D01*
X65230119Y-73009491D02*
X65239642Y-73028539D01*
X65239642Y-73028539D02*
X65239642Y-73038062D01*
X65239642Y-73038062D02*
X65230119Y-73057110D01*
X65230119Y-73057110D02*
X65220595Y-73066634D01*
X65220595Y-73066634D02*
X65201547Y-73076158D01*
X65201547Y-73076158D02*
X65163452Y-73076158D01*
X65163452Y-73076158D02*
X65144404Y-73085681D01*
X65144404Y-73085681D02*
X65134881Y-73095205D01*
X65134881Y-73095205D02*
X65125357Y-73114253D01*
X65125357Y-73114253D02*
X65125357Y-73152348D01*
X65125357Y-73152348D02*
X65134881Y-73171396D01*
X65134881Y-73171396D02*
X65144404Y-73180920D01*
X65144404Y-73180920D02*
X65163452Y-73190443D01*
X65163452Y-73190443D02*
X65201547Y-73190443D01*
X65201547Y-73190443D02*
X65220595Y-73180920D01*
X65220595Y-73180920D02*
X65230119Y-73171396D01*
X65230119Y-73171396D02*
X65239642Y-73152348D01*
X65239642Y-73152348D02*
X65239642Y-73114253D01*
X65239642Y-73114253D02*
X65230119Y-73095205D01*
X65230119Y-73095205D02*
X65220595Y-73085681D01*
X65220595Y-73085681D02*
X65201547Y-73076158D01*
D13*
%TO.C,D2*%
X49094286Y-32007442D02*
X49094286Y-31857442D01*
X49094286Y-31857442D02*
X49130000Y-31857442D01*
X49130000Y-31857442D02*
X49151429Y-31864585D01*
X49151429Y-31864585D02*
X49165714Y-31878871D01*
X49165714Y-31878871D02*
X49172857Y-31893157D01*
X49172857Y-31893157D02*
X49180000Y-31921728D01*
X49180000Y-31921728D02*
X49180000Y-31943157D01*
X49180000Y-31943157D02*
X49172857Y-31971728D01*
X49172857Y-31971728D02*
X49165714Y-31986014D01*
X49165714Y-31986014D02*
X49151429Y-32000300D01*
X49151429Y-32000300D02*
X49130000Y-32007442D01*
X49130000Y-32007442D02*
X49094286Y-32007442D01*
X49237143Y-31871728D02*
X49244286Y-31864585D01*
X49244286Y-31864585D02*
X49258572Y-31857442D01*
X49258572Y-31857442D02*
X49294286Y-31857442D01*
X49294286Y-31857442D02*
X49308572Y-31864585D01*
X49308572Y-31864585D02*
X49315714Y-31871728D01*
X49315714Y-31871728D02*
X49322857Y-31886014D01*
X49322857Y-31886014D02*
X49322857Y-31900300D01*
X49322857Y-31900300D02*
X49315714Y-31921728D01*
X49315714Y-31921728D02*
X49230000Y-32007442D01*
X49230000Y-32007442D02*
X49322857Y-32007442D01*
D12*
%TO.C,Q1*%
X58094761Y-66320057D02*
X57999523Y-66272438D01*
X57999523Y-66272438D02*
X57904285Y-66177200D01*
X57904285Y-66177200D02*
X57761428Y-66034342D01*
X57761428Y-66034342D02*
X57666190Y-65986723D01*
X57666190Y-65986723D02*
X57570952Y-65986723D01*
X57618571Y-66224819D02*
X57523333Y-66177200D01*
X57523333Y-66177200D02*
X57428095Y-66081961D01*
X57428095Y-66081961D02*
X57380476Y-65891485D01*
X57380476Y-65891485D02*
X57380476Y-65558152D01*
X57380476Y-65558152D02*
X57428095Y-65367676D01*
X57428095Y-65367676D02*
X57523333Y-65272438D01*
X57523333Y-65272438D02*
X57618571Y-65224819D01*
X57618571Y-65224819D02*
X57809047Y-65224819D01*
X57809047Y-65224819D02*
X57904285Y-65272438D01*
X57904285Y-65272438D02*
X57999523Y-65367676D01*
X57999523Y-65367676D02*
X58047142Y-65558152D01*
X58047142Y-65558152D02*
X58047142Y-65891485D01*
X58047142Y-65891485D02*
X57999523Y-66081961D01*
X57999523Y-66081961D02*
X57904285Y-66177200D01*
X57904285Y-66177200D02*
X57809047Y-66224819D01*
X57809047Y-66224819D02*
X57618571Y-66224819D01*
X58999523Y-66224819D02*
X58428095Y-66224819D01*
X58713809Y-66224819D02*
X58713809Y-65224819D01*
X58713809Y-65224819D02*
X58618571Y-65367676D01*
X58618571Y-65367676D02*
X58523333Y-65462914D01*
X58523333Y-65462914D02*
X58428095Y-65510533D01*
D16*
%TO.C,C7*%
X47383365Y-68301666D02*
X47443842Y-68362142D01*
X47443842Y-68362142D02*
X47504318Y-68543571D01*
X47504318Y-68543571D02*
X47504318Y-68664523D01*
X47504318Y-68664523D02*
X47443842Y-68845952D01*
X47443842Y-68845952D02*
X47322889Y-68966904D01*
X47322889Y-68966904D02*
X47201937Y-69027381D01*
X47201937Y-69027381D02*
X46960032Y-69087857D01*
X46960032Y-69087857D02*
X46778603Y-69087857D01*
X46778603Y-69087857D02*
X46536699Y-69027381D01*
X46536699Y-69027381D02*
X46415746Y-68966904D01*
X46415746Y-68966904D02*
X46294794Y-68845952D01*
X46294794Y-68845952D02*
X46234318Y-68664523D01*
X46234318Y-68664523D02*
X46234318Y-68543571D01*
X46234318Y-68543571D02*
X46294794Y-68362142D01*
X46294794Y-68362142D02*
X46355270Y-68301666D01*
X46234318Y-67878333D02*
X46234318Y-67031666D01*
X46234318Y-67031666D02*
X47504318Y-67575952D01*
D15*
%TO.C,R9*%
X59768666Y-36465923D02*
X59702000Y-36370685D01*
X59654381Y-36465923D02*
X59654381Y-36265923D01*
X59654381Y-36265923D02*
X59730571Y-36265923D01*
X59730571Y-36265923D02*
X59749619Y-36275447D01*
X59749619Y-36275447D02*
X59759142Y-36284971D01*
X59759142Y-36284971D02*
X59768666Y-36304019D01*
X59768666Y-36304019D02*
X59768666Y-36332590D01*
X59768666Y-36332590D02*
X59759142Y-36351638D01*
X59759142Y-36351638D02*
X59749619Y-36361161D01*
X59749619Y-36361161D02*
X59730571Y-36370685D01*
X59730571Y-36370685D02*
X59654381Y-36370685D01*
X59863904Y-36465923D02*
X59902000Y-36465923D01*
X59902000Y-36465923D02*
X59921047Y-36456400D01*
X59921047Y-36456400D02*
X59930571Y-36446876D01*
X59930571Y-36446876D02*
X59949619Y-36418304D01*
X59949619Y-36418304D02*
X59959142Y-36380209D01*
X59959142Y-36380209D02*
X59959142Y-36304019D01*
X59959142Y-36304019D02*
X59949619Y-36284971D01*
X59949619Y-36284971D02*
X59940095Y-36275447D01*
X59940095Y-36275447D02*
X59921047Y-36265923D01*
X59921047Y-36265923D02*
X59882952Y-36265923D01*
X59882952Y-36265923D02*
X59863904Y-36275447D01*
X59863904Y-36275447D02*
X59854381Y-36284971D01*
X59854381Y-36284971D02*
X59844857Y-36304019D01*
X59844857Y-36304019D02*
X59844857Y-36351638D01*
X59844857Y-36351638D02*
X59854381Y-36370685D01*
X59854381Y-36370685D02*
X59863904Y-36380209D01*
X59863904Y-36380209D02*
X59882952Y-36389733D01*
X59882952Y-36389733D02*
X59921047Y-36389733D01*
X59921047Y-36389733D02*
X59940095Y-36380209D01*
X59940095Y-36380209D02*
X59949619Y-36370685D01*
X59949619Y-36370685D02*
X59959142Y-36351638D01*
D12*
%TO.C,L1*%
X57963333Y-62174819D02*
X57487143Y-62174819D01*
X57487143Y-62174819D02*
X57487143Y-61174819D01*
X58820476Y-62174819D02*
X58249048Y-62174819D01*
X58534762Y-62174819D02*
X58534762Y-61174819D01*
X58534762Y-61174819D02*
X58439524Y-61317676D01*
X58439524Y-61317676D02*
X58344286Y-61412914D01*
X58344286Y-61412914D02*
X58249048Y-61460533D01*
D15*
%TO.C,U3*%
X58539047Y-76773709D02*
X58539047Y-77178471D01*
X58539047Y-77178471D02*
X58562857Y-77226090D01*
X58562857Y-77226090D02*
X58586666Y-77249900D01*
X58586666Y-77249900D02*
X58634285Y-77273709D01*
X58634285Y-77273709D02*
X58729523Y-77273709D01*
X58729523Y-77273709D02*
X58777142Y-77249900D01*
X58777142Y-77249900D02*
X58800952Y-77226090D01*
X58800952Y-77226090D02*
X58824761Y-77178471D01*
X58824761Y-77178471D02*
X58824761Y-76773709D01*
X59015238Y-76773709D02*
X59324762Y-76773709D01*
X59324762Y-76773709D02*
X59158095Y-76964185D01*
X59158095Y-76964185D02*
X59229524Y-76964185D01*
X59229524Y-76964185D02*
X59277143Y-76987995D01*
X59277143Y-76987995D02*
X59300952Y-77011804D01*
X59300952Y-77011804D02*
X59324762Y-77059423D01*
X59324762Y-77059423D02*
X59324762Y-77178471D01*
X59324762Y-77178471D02*
X59300952Y-77226090D01*
X59300952Y-77226090D02*
X59277143Y-77249900D01*
X59277143Y-77249900D02*
X59229524Y-77273709D01*
X59229524Y-77273709D02*
X59086667Y-77273709D01*
X59086667Y-77273709D02*
X59039048Y-77249900D01*
X59039048Y-77249900D02*
X59015238Y-77226090D01*
D14*
%TO.C,R_PROG1*%
X50913983Y-77054285D02*
X50818745Y-77120951D01*
X50913983Y-77168570D02*
X50713983Y-77168570D01*
X50713983Y-77168570D02*
X50713983Y-77092380D01*
X50713983Y-77092380D02*
X50723507Y-77073332D01*
X50723507Y-77073332D02*
X50733031Y-77063809D01*
X50733031Y-77063809D02*
X50752079Y-77054285D01*
X50752079Y-77054285D02*
X50780650Y-77054285D01*
X50780650Y-77054285D02*
X50799698Y-77063809D01*
X50799698Y-77063809D02*
X50809221Y-77073332D01*
X50809221Y-77073332D02*
X50818745Y-77092380D01*
X50818745Y-77092380D02*
X50818745Y-77168570D01*
X50933031Y-77016190D02*
X50933031Y-76863809D01*
X50913983Y-76816189D02*
X50713983Y-76816189D01*
X50713983Y-76816189D02*
X50713983Y-76739999D01*
X50713983Y-76739999D02*
X50723507Y-76720951D01*
X50723507Y-76720951D02*
X50733031Y-76711428D01*
X50733031Y-76711428D02*
X50752079Y-76701904D01*
X50752079Y-76701904D02*
X50780650Y-76701904D01*
X50780650Y-76701904D02*
X50799698Y-76711428D01*
X50799698Y-76711428D02*
X50809221Y-76720951D01*
X50809221Y-76720951D02*
X50818745Y-76739999D01*
X50818745Y-76739999D02*
X50818745Y-76816189D01*
X50913983Y-76501904D02*
X50818745Y-76568570D01*
X50913983Y-76616189D02*
X50713983Y-76616189D01*
X50713983Y-76616189D02*
X50713983Y-76539999D01*
X50713983Y-76539999D02*
X50723507Y-76520951D01*
X50723507Y-76520951D02*
X50733031Y-76511428D01*
X50733031Y-76511428D02*
X50752079Y-76501904D01*
X50752079Y-76501904D02*
X50780650Y-76501904D01*
X50780650Y-76501904D02*
X50799698Y-76511428D01*
X50799698Y-76511428D02*
X50809221Y-76520951D01*
X50809221Y-76520951D02*
X50818745Y-76539999D01*
X50818745Y-76539999D02*
X50818745Y-76616189D01*
X50713983Y-76378094D02*
X50713983Y-76339999D01*
X50713983Y-76339999D02*
X50723507Y-76320951D01*
X50723507Y-76320951D02*
X50742555Y-76301904D01*
X50742555Y-76301904D02*
X50780650Y-76292380D01*
X50780650Y-76292380D02*
X50847317Y-76292380D01*
X50847317Y-76292380D02*
X50885412Y-76301904D01*
X50885412Y-76301904D02*
X50904460Y-76320951D01*
X50904460Y-76320951D02*
X50913983Y-76339999D01*
X50913983Y-76339999D02*
X50913983Y-76378094D01*
X50913983Y-76378094D02*
X50904460Y-76397142D01*
X50904460Y-76397142D02*
X50885412Y-76416189D01*
X50885412Y-76416189D02*
X50847317Y-76425713D01*
X50847317Y-76425713D02*
X50780650Y-76425713D01*
X50780650Y-76425713D02*
X50742555Y-76416189D01*
X50742555Y-76416189D02*
X50723507Y-76397142D01*
X50723507Y-76397142D02*
X50713983Y-76378094D01*
X50723507Y-76101904D02*
X50713983Y-76120951D01*
X50713983Y-76120951D02*
X50713983Y-76149523D01*
X50713983Y-76149523D02*
X50723507Y-76178094D01*
X50723507Y-76178094D02*
X50742555Y-76197142D01*
X50742555Y-76197142D02*
X50761602Y-76206665D01*
X50761602Y-76206665D02*
X50799698Y-76216189D01*
X50799698Y-76216189D02*
X50828269Y-76216189D01*
X50828269Y-76216189D02*
X50866364Y-76206665D01*
X50866364Y-76206665D02*
X50885412Y-76197142D01*
X50885412Y-76197142D02*
X50904460Y-76178094D01*
X50904460Y-76178094D02*
X50913983Y-76149523D01*
X50913983Y-76149523D02*
X50913983Y-76130475D01*
X50913983Y-76130475D02*
X50904460Y-76101904D01*
X50904460Y-76101904D02*
X50894936Y-76092380D01*
X50894936Y-76092380D02*
X50828269Y-76092380D01*
X50828269Y-76092380D02*
X50828269Y-76130475D01*
X50913983Y-75901904D02*
X50913983Y-76016189D01*
X50913983Y-75959046D02*
X50713983Y-75959046D01*
X50713983Y-75959046D02*
X50742555Y-75978094D01*
X50742555Y-75978094D02*
X50761602Y-75997142D01*
X50761602Y-75997142D02*
X50771126Y-76016189D01*
D12*
%TO.C,R4*%
X69944819Y-58536666D02*
X69468628Y-58869999D01*
X69944819Y-59108094D02*
X68944819Y-59108094D01*
X68944819Y-59108094D02*
X68944819Y-58727142D01*
X68944819Y-58727142D02*
X68992438Y-58631904D01*
X68992438Y-58631904D02*
X69040057Y-58584285D01*
X69040057Y-58584285D02*
X69135295Y-58536666D01*
X69135295Y-58536666D02*
X69278152Y-58536666D01*
X69278152Y-58536666D02*
X69373390Y-58584285D01*
X69373390Y-58584285D02*
X69421009Y-58631904D01*
X69421009Y-58631904D02*
X69468628Y-58727142D01*
X69468628Y-58727142D02*
X69468628Y-59108094D01*
X69278152Y-57679523D02*
X69944819Y-57679523D01*
X68897200Y-57917618D02*
X69611485Y-58155713D01*
X69611485Y-58155713D02*
X69611485Y-57536666D01*
D14*
%TO.C,D11*%
X68621071Y-73435221D02*
X68621071Y-73335221D01*
X68621071Y-73335221D02*
X68644881Y-73335221D01*
X68644881Y-73335221D02*
X68659166Y-73339983D01*
X68659166Y-73339983D02*
X68668690Y-73349507D01*
X68668690Y-73349507D02*
X68673452Y-73359031D01*
X68673452Y-73359031D02*
X68678214Y-73378079D01*
X68678214Y-73378079D02*
X68678214Y-73392364D01*
X68678214Y-73392364D02*
X68673452Y-73411412D01*
X68673452Y-73411412D02*
X68668690Y-73420936D01*
X68668690Y-73420936D02*
X68659166Y-73430460D01*
X68659166Y-73430460D02*
X68644881Y-73435221D01*
X68644881Y-73435221D02*
X68621071Y-73435221D01*
X68773452Y-73435221D02*
X68716309Y-73435221D01*
X68744881Y-73435221D02*
X68744881Y-73335221D01*
X68744881Y-73335221D02*
X68735357Y-73349507D01*
X68735357Y-73349507D02*
X68725833Y-73359031D01*
X68725833Y-73359031D02*
X68716309Y-73363793D01*
X68868690Y-73435221D02*
X68811547Y-73435221D01*
X68840119Y-73435221D02*
X68840119Y-73335221D01*
X68840119Y-73335221D02*
X68830595Y-73349507D01*
X68830595Y-73349507D02*
X68821071Y-73359031D01*
X68821071Y-73359031D02*
X68811547Y-73363793D01*
D13*
%TO.C,D17*%
X65117857Y-36107442D02*
X65117857Y-35957442D01*
X65117857Y-35957442D02*
X65153571Y-35957442D01*
X65153571Y-35957442D02*
X65175000Y-35964585D01*
X65175000Y-35964585D02*
X65189285Y-35978871D01*
X65189285Y-35978871D02*
X65196428Y-35993157D01*
X65196428Y-35993157D02*
X65203571Y-36021728D01*
X65203571Y-36021728D02*
X65203571Y-36043157D01*
X65203571Y-36043157D02*
X65196428Y-36071728D01*
X65196428Y-36071728D02*
X65189285Y-36086014D01*
X65189285Y-36086014D02*
X65175000Y-36100300D01*
X65175000Y-36100300D02*
X65153571Y-36107442D01*
X65153571Y-36107442D02*
X65117857Y-36107442D01*
X65346428Y-36107442D02*
X65260714Y-36107442D01*
X65303571Y-36107442D02*
X65303571Y-35957442D01*
X65303571Y-35957442D02*
X65289285Y-35978871D01*
X65289285Y-35978871D02*
X65275000Y-35993157D01*
X65275000Y-35993157D02*
X65260714Y-36000300D01*
X65396428Y-35957442D02*
X65496428Y-35957442D01*
X65496428Y-35957442D02*
X65432142Y-36107442D01*
D17*
%TO.C,R5*%
X66992166Y-75793229D02*
X66825500Y-75555134D01*
X66706452Y-75793229D02*
X66706452Y-75293229D01*
X66706452Y-75293229D02*
X66896928Y-75293229D01*
X66896928Y-75293229D02*
X66944547Y-75317039D01*
X66944547Y-75317039D02*
X66968357Y-75340848D01*
X66968357Y-75340848D02*
X66992166Y-75388467D01*
X66992166Y-75388467D02*
X66992166Y-75459896D01*
X66992166Y-75459896D02*
X66968357Y-75507515D01*
X66968357Y-75507515D02*
X66944547Y-75531324D01*
X66944547Y-75531324D02*
X66896928Y-75555134D01*
X66896928Y-75555134D02*
X66706452Y-75555134D01*
X67444547Y-75293229D02*
X67206452Y-75293229D01*
X67206452Y-75293229D02*
X67182643Y-75531324D01*
X67182643Y-75531324D02*
X67206452Y-75507515D01*
X67206452Y-75507515D02*
X67254071Y-75483705D01*
X67254071Y-75483705D02*
X67373119Y-75483705D01*
X67373119Y-75483705D02*
X67420738Y-75507515D01*
X67420738Y-75507515D02*
X67444547Y-75531324D01*
X67444547Y-75531324D02*
X67468357Y-75578943D01*
X67468357Y-75578943D02*
X67468357Y-75697991D01*
X67468357Y-75697991D02*
X67444547Y-75745610D01*
X67444547Y-75745610D02*
X67420738Y-75769420D01*
X67420738Y-75769420D02*
X67373119Y-75793229D01*
X67373119Y-75793229D02*
X67254071Y-75793229D01*
X67254071Y-75793229D02*
X67206452Y-75769420D01*
X67206452Y-75769420D02*
X67182643Y-75745610D01*
D12*
%TO.C,C1*%
X58499580Y-30126666D02*
X58547200Y-30174285D01*
X58547200Y-30174285D02*
X58594819Y-30317142D01*
X58594819Y-30317142D02*
X58594819Y-30412380D01*
X58594819Y-30412380D02*
X58547200Y-30555237D01*
X58547200Y-30555237D02*
X58451961Y-30650475D01*
X58451961Y-30650475D02*
X58356723Y-30698094D01*
X58356723Y-30698094D02*
X58166247Y-30745713D01*
X58166247Y-30745713D02*
X58023390Y-30745713D01*
X58023390Y-30745713D02*
X57832914Y-30698094D01*
X57832914Y-30698094D02*
X57737676Y-30650475D01*
X57737676Y-30650475D02*
X57642438Y-30555237D01*
X57642438Y-30555237D02*
X57594819Y-30412380D01*
X57594819Y-30412380D02*
X57594819Y-30317142D01*
X57594819Y-30317142D02*
X57642438Y-30174285D01*
X57642438Y-30174285D02*
X57690057Y-30126666D01*
X58594819Y-29174285D02*
X58594819Y-29745713D01*
X58594819Y-29459999D02*
X57594819Y-29459999D01*
X57594819Y-29459999D02*
X57737676Y-29555237D01*
X57737676Y-29555237D02*
X57832914Y-29650475D01*
X57832914Y-29650475D02*
X57880533Y-29745713D01*
D15*
%TO.C,C6*%
X64883376Y-29973333D02*
X64892900Y-29982857D01*
X64892900Y-29982857D02*
X64902423Y-30011428D01*
X64902423Y-30011428D02*
X64902423Y-30030476D01*
X64902423Y-30030476D02*
X64892900Y-30059047D01*
X64892900Y-30059047D02*
X64873852Y-30078095D01*
X64873852Y-30078095D02*
X64854804Y-30087618D01*
X64854804Y-30087618D02*
X64816709Y-30097142D01*
X64816709Y-30097142D02*
X64788138Y-30097142D01*
X64788138Y-30097142D02*
X64750042Y-30087618D01*
X64750042Y-30087618D02*
X64730995Y-30078095D01*
X64730995Y-30078095D02*
X64711947Y-30059047D01*
X64711947Y-30059047D02*
X64702423Y-30030476D01*
X64702423Y-30030476D02*
X64702423Y-30011428D01*
X64702423Y-30011428D02*
X64711947Y-29982857D01*
X64711947Y-29982857D02*
X64721471Y-29973333D01*
X64702423Y-29801904D02*
X64702423Y-29839999D01*
X64702423Y-29839999D02*
X64711947Y-29859047D01*
X64711947Y-29859047D02*
X64721471Y-29868571D01*
X64721471Y-29868571D02*
X64750042Y-29887618D01*
X64750042Y-29887618D02*
X64788138Y-29897142D01*
X64788138Y-29897142D02*
X64864328Y-29897142D01*
X64864328Y-29897142D02*
X64883376Y-29887618D01*
X64883376Y-29887618D02*
X64892900Y-29878095D01*
X64892900Y-29878095D02*
X64902423Y-29859047D01*
X64902423Y-29859047D02*
X64902423Y-29820952D01*
X64902423Y-29820952D02*
X64892900Y-29801904D01*
X64892900Y-29801904D02*
X64883376Y-29792380D01*
X64883376Y-29792380D02*
X64864328Y-29782857D01*
X64864328Y-29782857D02*
X64816709Y-29782857D01*
X64816709Y-29782857D02*
X64797661Y-29792380D01*
X64797661Y-29792380D02*
X64788138Y-29801904D01*
X64788138Y-29801904D02*
X64778614Y-29820952D01*
X64778614Y-29820952D02*
X64778614Y-29859047D01*
X64778614Y-29859047D02*
X64788138Y-29878095D01*
X64788138Y-29878095D02*
X64797661Y-29887618D01*
X64797661Y-29887618D02*
X64816709Y-29897142D01*
D18*
%TO.C,U4*%
X55485000Y-68620000D02*
G75*
G03*
X55485000Y-68620000I-100000J0D01*
G01*
D19*
%TO.C,R2*%
X69675276Y-80917500D02*
X70184724Y-80917500D01*
X69675276Y-81962500D02*
X70184724Y-81962500D01*
%TO.C,R1*%
X61645276Y-78882500D02*
X62154724Y-78882500D01*
X61645276Y-77837500D02*
X62154724Y-77837500D01*
%TO.C,J9*%
X65715000Y-81285000D02*
X65715000Y-83040000D01*
X56515000Y-84987500D02*
X56515000Y-86387500D01*
X65715000Y-84987500D02*
X65715000Y-86387500D01*
X56515000Y-81285000D02*
X56515000Y-83040000D01*
D20*
%TO.C,VR1*%
X71405000Y-43860000D02*
X71405000Y-54220000D01*
X73010000Y-43860000D02*
X71405000Y-43860000D01*
X73010000Y-54220000D02*
X71405000Y-54220000D01*
X82160000Y-43860000D02*
X82160000Y-54220000D01*
D18*
X65910000Y-45540000D02*
G75*
G03*
X65910000Y-45540000I-100000J0D01*
G01*
%TO.C,U1*%
X57730000Y-52130000D02*
G75*
G03*
X57730000Y-52130000I-100000J0D01*
G01*
D20*
X46410000Y-33140000D02*
X46410000Y-53340000D01*
X46410000Y-53340000D02*
X51410000Y-53340000D01*
X51410000Y-33140000D02*
X46410000Y-33140000D01*
D19*
%TO.C,J11*%
X40610000Y-56480000D02*
X40610000Y-55080000D01*
X42010000Y-56480000D02*
X40610000Y-56480000D01*
X40610000Y-55080000D02*
X42010000Y-55080000D01*
X42010000Y-55080000D02*
X42010000Y-56480000D01*
%TO.C,J10*%
X40620000Y-54290000D02*
X40620000Y-52890000D01*
X42020000Y-54290000D02*
X40620000Y-54290000D01*
X40620000Y-52890000D02*
X42020000Y-52890000D01*
X42020000Y-52890000D02*
X42020000Y-54290000D01*
%TO.C,J8*%
X44150000Y-41530000D02*
X44150000Y-40130000D01*
X45550000Y-41530000D02*
X44150000Y-41530000D01*
X44150000Y-40130000D02*
X45550000Y-40130000D01*
X45550000Y-40130000D02*
X45550000Y-41530000D01*
%TO.C,J7*%
X45550000Y-42320000D02*
X45550000Y-43720000D01*
X44150000Y-42320000D02*
X45550000Y-42320000D01*
X45550000Y-43720000D02*
X44150000Y-43720000D01*
X44150000Y-43720000D02*
X44150000Y-42320000D01*
%TO.C,J6*%
X44150000Y-45970000D02*
X44150000Y-44570000D01*
X45550000Y-45970000D02*
X44150000Y-45970000D01*
X44150000Y-44570000D02*
X45550000Y-44570000D01*
X45550000Y-44570000D02*
X45550000Y-45970000D01*
%TO.C,J5*%
X44090000Y-50650000D02*
X44090000Y-49250000D01*
X45490000Y-50650000D02*
X44090000Y-50650000D01*
X44090000Y-49250000D02*
X45490000Y-49250000D01*
X45490000Y-49250000D02*
X45490000Y-50650000D01*
%TO.C,J3*%
X44120000Y-48270000D02*
X44120000Y-46870000D01*
X45520000Y-48270000D02*
X44120000Y-48270000D01*
X44120000Y-46870000D02*
X45520000Y-46870000D01*
X45520000Y-46870000D02*
X45520000Y-48270000D01*
%TO.C,J2*%
X38655000Y-46395000D02*
X38655000Y-43520000D01*
X40045000Y-43520000D02*
X39744493Y-43520000D01*
X38741724Y-46395000D02*
X38655000Y-46395000D01*
X38955507Y-43520000D02*
X38655000Y-43520000D01*
X40045000Y-46395000D02*
X39958276Y-46395000D01*
X40045000Y-47080000D02*
X40045000Y-47765000D01*
X40045000Y-46395000D02*
X40045000Y-43520000D01*
X40045000Y-47765000D02*
X39350000Y-47765000D01*
%TO.C,J4*%
X82497500Y-60650000D02*
X85917500Y-60650000D01*
X81497500Y-57080000D02*
X79297500Y-57080000D01*
X86497500Y-63580000D02*
X86497500Y-62360000D01*
X85917500Y-58790000D02*
X82497500Y-58790000D01*
X81497500Y-57080000D02*
X81497500Y-55860000D01*
X81497500Y-62360000D02*
X81497500Y-63580000D01*
X82497500Y-58790000D02*
X82497500Y-58470000D01*
X79297500Y-55860000D02*
X87717500Y-55860000D01*
X85917500Y-58150000D02*
X85997500Y-58470000D01*
X85917500Y-60650000D02*
X85997500Y-60970000D01*
X87717500Y-55860000D02*
X87717500Y-63580000D01*
X79297500Y-63580000D02*
X79297500Y-62360000D01*
X82497500Y-60970000D02*
X82497500Y-60650000D01*
X79297500Y-57080000D02*
X79297500Y-55860000D01*
X85997500Y-58470000D02*
X85917500Y-58790000D01*
X78807500Y-58770000D02*
X79407500Y-58470000D01*
X82497500Y-58150000D02*
X85917500Y-58150000D01*
X78807500Y-58170000D02*
X78807500Y-58770000D01*
X82497500Y-58470000D02*
X82497500Y-58150000D01*
X86497500Y-55860000D02*
X86497500Y-57080000D01*
X86497500Y-57080000D02*
X81497500Y-57080000D01*
X87717500Y-63580000D02*
X79297500Y-63580000D01*
X79407500Y-58470000D02*
X78807500Y-58170000D01*
X81497500Y-59640000D02*
X81497500Y-59800000D01*
X82497500Y-61290000D02*
X82497500Y-60970000D01*
X85997500Y-60970000D02*
X85917500Y-61290000D01*
X79297500Y-62360000D02*
X81497500Y-62360000D01*
X82497500Y-57080000D02*
X82497500Y-62360000D01*
X86497500Y-62360000D02*
X81497500Y-62360000D01*
X85917500Y-61290000D02*
X82497500Y-61290000D01*
D20*
%TO.C,U2*%
X66077500Y-43320000D02*
X66077500Y-36820000D01*
X66077500Y-36820000D02*
X65304000Y-36820000D01*
X65304000Y-43320000D02*
X66077500Y-43320000D01*
D18*
X68390000Y-44070000D02*
G75*
G03*
X68390000Y-44070000I-100000J0D01*
G01*
D19*
%TO.C,D3*%
X54172500Y-30858750D02*
X56632500Y-30858750D01*
X56632500Y-29388750D02*
X54172500Y-29388750D01*
X56632500Y-30858750D02*
X56632500Y-29388750D01*
%TO.C,D4*%
X53315000Y-31158750D02*
X53315000Y-32628750D01*
X53315000Y-32628750D02*
X55775000Y-32628750D01*
X55775000Y-31158750D02*
X53315000Y-31158750D01*
%TO.C,R6*%
X65064724Y-73347500D02*
X64555276Y-73347500D01*
X65064724Y-74392500D02*
X64555276Y-74392500D01*
%TO.C,R3*%
X71925276Y-56097500D02*
X72434724Y-56097500D01*
X71925276Y-57142500D02*
X72434724Y-57142500D01*
%TO.C,D1*%
X51802500Y-29455000D02*
X49342500Y-29455000D01*
X49342500Y-30925000D02*
X51802500Y-30925000D01*
X49342500Y-29455000D02*
X49342500Y-30925000D01*
D18*
%TO.C,C4*%
X63890000Y-60050000D02*
X75990000Y-60050000D01*
X68115000Y-70550000D02*
X75990000Y-70550000D01*
D19*
%TO.C,C2*%
X49603767Y-58830000D02*
X49311233Y-58830000D01*
X49603767Y-57810000D02*
X49311233Y-57810000D01*
%TO.C,D8*%
X46615000Y-55725000D02*
X46615000Y-57195000D01*
X46615000Y-57195000D02*
X49075000Y-57195000D01*
X49075000Y-55725000D02*
X46615000Y-55725000D01*
D11*
%TO.C,D10*%
X67905000Y-75500000D02*
G75*
G03*
X67905000Y-75500000I-50000J0D01*
G01*
D18*
%TO.C,D9*%
X64600000Y-52975000D02*
X64600000Y-44425000D01*
X58700000Y-45025000D02*
X58700000Y-52975000D01*
D19*
%TO.C,R8*%
X64517776Y-71547500D02*
X65027224Y-71547500D01*
X64517776Y-72592500D02*
X65027224Y-72592500D01*
%TO.C,D2*%
X50175000Y-32675000D02*
X52635000Y-32675000D01*
X52635000Y-31205000D02*
X50175000Y-31205000D01*
X52635000Y-32675000D02*
X52635000Y-31205000D01*
D20*
%TO.C,Q1*%
X56000000Y-64275000D02*
X60500000Y-64275000D01*
X56000000Y-67305000D02*
X60500000Y-67305000D01*
D18*
X53910000Y-64415000D02*
G75*
G03*
X53910000Y-64415000I-100000J0D01*
G01*
D19*
%TO.C,D6*%
X51290000Y-57125000D02*
X53750000Y-57125000D01*
X53750000Y-55655000D02*
X51290000Y-55655000D01*
X53750000Y-57125000D02*
X53750000Y-55655000D01*
D18*
%TO.C,C7*%
X52180000Y-61240000D02*
X52180000Y-73340000D01*
X41680000Y-65465000D02*
X41680000Y-73340000D01*
D19*
%TO.C,R9*%
X59142776Y-34837500D02*
X59652224Y-34837500D01*
X59142776Y-35882500D02*
X59652224Y-35882500D01*
%TO.C,L1*%
X61990000Y-63620000D02*
X54590000Y-63620000D01*
X61990000Y-61320000D02*
X61990000Y-63620000D01*
X61990000Y-56220000D02*
X61990000Y-58520000D01*
X54590000Y-63620000D02*
X54590000Y-61320000D01*
X54590000Y-58520000D02*
X54590000Y-56220000D01*
X54590000Y-56220000D02*
X61990000Y-56220000D01*
D18*
%TO.C,U3*%
X54575000Y-71990000D02*
G75*
G03*
X54575000Y-71990000I-100000J0D01*
G01*
D20*
X56920000Y-77045000D02*
X60920000Y-77045000D01*
X56920000Y-71945000D02*
X60920000Y-71945000D01*
D19*
%TO.C,R_PROG1*%
X53677224Y-76017500D02*
X53167776Y-76017500D01*
X53677224Y-77062500D02*
X53167776Y-77062500D01*
%TO.C,R4*%
X64670000Y-54200000D02*
X68410000Y-54200000D01*
X64670000Y-54580000D02*
X64670000Y-54200000D01*
X68410000Y-55380000D02*
X68410000Y-54200000D01*
X64670000Y-56880000D02*
X64670000Y-56360000D01*
X68410000Y-59240000D02*
X68410000Y-57860000D01*
X64670000Y-59240000D02*
X64670000Y-58659000D01*
X64670000Y-59240000D02*
X68410000Y-59240000D01*
D11*
%TO.C,D11*%
X67907500Y-73900000D02*
G75*
G03*
X67907500Y-73900000I-50000J0D01*
G01*
D19*
%TO.C,R7*%
X54337500Y-69305276D02*
X54337500Y-69814724D01*
X55382500Y-69305276D02*
X55382500Y-69814724D01*
%TO.C,D7*%
X47477500Y-55395000D02*
X49937500Y-55395000D01*
X49937500Y-53925000D02*
X47477500Y-53925000D01*
X49937500Y-55395000D02*
X49937500Y-53925000D01*
D11*
%TO.C,D17*%
X65300000Y-33760000D02*
G75*
G03*
X65300000Y-33760000I-50000J0D01*
G01*
D19*
%TO.C,D5*%
X52887500Y-53915000D02*
X50427500Y-53915000D01*
X50427500Y-55385000D02*
X52887500Y-55385000D01*
X50427500Y-53915000D02*
X50427500Y-55385000D01*
%TO.C,C10*%
X61650000Y-69726267D02*
X61650000Y-69433733D01*
X60630000Y-69726267D02*
X60630000Y-69433733D01*
%TO.C,R5*%
X65064724Y-74957500D02*
X64555276Y-74957500D01*
X65064724Y-76002500D02*
X64555276Y-76002500D01*
%TO.C,C1*%
X58680000Y-32946267D02*
X58680000Y-32653733D01*
X57660000Y-32946267D02*
X57660000Y-32653733D01*
%TO.C,C6*%
X63700000Y-31986267D02*
X63700000Y-31693733D01*
X64720000Y-31986267D02*
X64720000Y-31693733D01*
%TD*%
D21*
X57900000Y-78310000D03*
X71250000Y-78650000D03*
X62590000Y-68510000D03*
X53610000Y-65540000D03*
X63440000Y-76720000D03*
X67120000Y-76740500D03*
X67330000Y-72110000D03*
X54580000Y-71950000D03*
X62780000Y-65590000D03*
X51110000Y-60000000D03*
X51830000Y-57690000D03*
X74830000Y-56600000D03*
X64190000Y-28920000D03*
X48210000Y-31920000D03*
X60630000Y-33850000D03*
X57580000Y-40800000D03*
X68880000Y-44210000D03*
X70970000Y-41850000D03*
X67620000Y-35630000D03*
X56040000Y-34350000D03*
X50960000Y-35620000D03*
X56040000Y-36890000D03*
X50960000Y-38160000D03*
X56040000Y-39430000D03*
X50960000Y-40700000D03*
X56040000Y-41970000D03*
X50960000Y-43240000D03*
X56040000Y-44510000D03*
X50960000Y-45780000D03*
X56040000Y-47050000D03*
X50960000Y-48320000D03*
X56040000Y-49590000D03*
X50960000Y-50860000D03*
X56040000Y-52130000D03*
X41310000Y-55780000D03*
X41320000Y-53590000D03*
X44850000Y-40830000D03*
X44850000Y-43020000D03*
X44850000Y-45270000D03*
X44790000Y-49950000D03*
X44820000Y-47570000D03*
X39350000Y-44080000D03*
X39350000Y-45080000D03*
X39350000Y-46080000D03*
X39350000Y-47080000D03*
X80907500Y-60970000D03*
X80907500Y-58470000D03*
M02*
