%TF.GenerationSoftware,KiCad,Pcbnew,7.0.5-0*%
%TF.CreationDate,2024-11-16T18:44:09-05:00*%
%TF.ProjectId,PCB_design,5043425f-6465-4736-9967-6e2e6b696361,rev?*%
%TF.SameCoordinates,Original*%
%TF.FileFunction,Legend,Bot*%
%TF.FilePolarity,Positive*%
%FSLAX46Y46*%
G04 Gerber Fmt 4.6, Leading zero omitted, Abs format (unit mm)*
G04 Created by KiCad (PCBNEW 7.0.5-0) date 2024-11-16 18:44:09*
%MOMM*%
%LPD*%
G01*
G04 APERTURE LIST*
%ADD10C,0.350000*%
G04 APERTURE END LIST*
D10*
X57900000Y-78310000D03*
X71250000Y-78650000D03*
X62590000Y-68510000D03*
X53610000Y-65540000D03*
X63440000Y-76720000D03*
X67120000Y-76740500D03*
X67330000Y-72110000D03*
X54580000Y-71950000D03*
X62780000Y-65590000D03*
X51110000Y-60000000D03*
X51830000Y-57690000D03*
X74830000Y-56600000D03*
X64190000Y-28920000D03*
X48210000Y-31920000D03*
X60630000Y-33850000D03*
X57580000Y-40800000D03*
X68880000Y-44210000D03*
X70970000Y-41850000D03*
X67620000Y-35630000D03*
X56040000Y-34350000D03*
X50960000Y-35620000D03*
X56040000Y-36890000D03*
X50960000Y-38160000D03*
X56040000Y-39430000D03*
X50960000Y-40700000D03*
X56040000Y-41970000D03*
X50960000Y-43240000D03*
X56040000Y-44510000D03*
X50960000Y-45780000D03*
X56040000Y-47050000D03*
X50960000Y-48320000D03*
X56040000Y-49590000D03*
X50960000Y-50860000D03*
X56040000Y-52130000D03*
X41310000Y-55780000D03*
X41320000Y-53590000D03*
X44850000Y-40830000D03*
X44850000Y-43020000D03*
X44850000Y-45270000D03*
X44790000Y-49950000D03*
X44820000Y-47570000D03*
X39350000Y-44080000D03*
X39350000Y-45080000D03*
X39350000Y-46080000D03*
X39350000Y-47080000D03*
X80907500Y-60970000D03*
X80907500Y-58470000D03*
M02*
