M48
METRIC,TZ
T1C0.400
T2C0.500
T3C1.000
T4C1.080
%
G90
G05
T1
X89205Y-41335
X92105Y-69415
X93090Y-68270
X94605Y-74955
X95575Y-81365
X98575Y-50215
X98895Y-87725
X101625Y-43265
X103585Y-77925
X103775Y-75005
X104435Y-86135
X105185Y-38335
X105310Y-87980
X108115Y-86156
X108325Y-81525
X108615Y-45045
X109875Y-53625
X111965Y-51265
X112245Y-88065
X115825Y-66015
T2
X80345Y-53495
X80345Y-54495
X80345Y-55495
X80345Y-56495
X82305Y-65195
X82315Y-63005
X85785Y-59365
X85815Y-56985
X85845Y-50245
X85845Y-52435
X85845Y-54685
T3
X121902Y-67885
X121902Y-70385
T4
X91955Y-45035
X91955Y-47575
X91955Y-50115
X91955Y-52655
X91955Y-55195
X91955Y-57735
X91955Y-60275
X97035Y-43765
X97035Y-46305
X97035Y-48845
X97035Y-51385
X97035Y-53925
X97035Y-56465
X97035Y-59005
X97035Y-61545
T0
M30
