M48
METRIC,TZ
T1C0.400
T2C0.500
T3C0.800
T4C0.900
T5C1.000
T6C1.080
%
G90
G05
T1
X89839Y-71200
X92999Y-67560
X98139Y-78850
X101219Y-53700
X102949Y-53880
X108040Y-47660
X109529Y-81680
X111189Y-75560
X111259Y-44100
X115679Y-74620
X116069Y-43380
X116799Y-82900
X120389Y-82910
X123219Y-70770
X123999Y-78530
X127339Y-77300
X134510Y-71750
X137369Y-49080
T2
X113840Y-37060
X116030Y-37070
X120999Y-44240
X121367Y-40433
X122367Y-40433
X123367Y-40433
X123379Y-44270
X124367Y-40433
X125639Y-44300
X127929Y-44300
X130369Y-44300
T3
X108400Y-53100
X110940Y-53100
X113480Y-53100
T4
X94287Y-79542
X96202Y-81149
X98117Y-82755
T5
X95965Y-51611
X97252Y-49468
T6
X116419Y-57770
X117689Y-52690
X118959Y-57770
X120229Y-52690
X121499Y-57770
X122769Y-52690
X124039Y-57770
X125309Y-52690
X126579Y-57770
X127849Y-52690
X129119Y-57770
X130389Y-52690
X131659Y-57770
X132929Y-52690
X134199Y-57770
T0
M30
