%TF.GenerationSoftware,KiCad,Pcbnew,7.0.5-0*%
%TF.CreationDate,2024-11-16T18:44:09-05:00*%
%TF.ProjectId,PCB_design,5043425f-6465-4736-9967-6e2e6b696361,rev?*%
%TF.SameCoordinates,Original*%
%TF.FileFunction,Soldermask,Top*%
%TF.FilePolarity,Negative*%
%FSLAX46Y46*%
G04 Gerber Fmt 4.6, Leading zero omitted, Abs format (unit mm)*
G04 Created by KiCad (PCBNEW 7.0.5-0) date 2024-11-16 18:44:09*
%MOMM*%
%LPD*%
G01*
G04 APERTURE LIST*
G04 Aperture macros list*
%AMRoundRect*
0 Rectangle with rounded corners*
0 $1 Rounding radius*
0 $2 $3 $4 $5 $6 $7 $8 $9 X,Y pos of 4 corners*
0 Add a 4 corners polygon primitive as box body*
4,1,4,$2,$3,$4,$5,$6,$7,$8,$9,$2,$3,0*
0 Add four circle primitives for the rounded corners*
1,1,$1+$1,$2,$3*
1,1,$1+$1,$4,$5*
1,1,$1+$1,$6,$7*
1,1,$1+$1,$8,$9*
0 Add four rect primitives between the rounded corners*
20,1,$1+$1,$2,$3,$4,$5,0*
20,1,$1+$1,$4,$5,$6,$7,0*
20,1,$1+$1,$6,$7,$8,$9,0*
20,1,$1+$1,$8,$9,$2,$3,0*%
G04 Aperture macros list end*
%ADD10RoundRect,0.102000X-0.605000X-0.295000X0.605000X-0.295000X0.605000X0.295000X-0.605000X0.295000X0*%
%ADD11RoundRect,0.237500X-0.250000X-0.237500X0.250000X-0.237500X0.250000X0.237500X-0.250000X0.237500X0*%
%ADD12R,0.700000X1.200000*%
%ADD13R,0.760000X1.200000*%
%ADD14R,0.800000X1.200000*%
%ADD15R,1.800000X1.350000*%
%ADD16R,1.800000X1.500000*%
%ADD17RoundRect,0.102000X-1.605000X-0.525000X1.605000X-0.525000X1.605000X0.525000X-1.605000X0.525000X0*%
%ADD18RoundRect,0.102000X-4.230000X-5.265000X4.230000X-5.265000X4.230000X5.265000X-4.230000X5.265000X0*%
%ADD19C,1.824000*%
%ADD20RoundRect,0.102000X0.810000X0.810000X-0.810000X0.810000X-0.810000X-0.810000X0.810000X-0.810000X0*%
%ADD21R,1.000000X1.000000*%
%ADD22O,0.850000X0.850000*%
%ADD23R,0.850000X0.850000*%
%ADD24O,2.000000X1.700000*%
%ADD25RoundRect,0.250000X-0.750000X0.600000X-0.750000X-0.600000X0.750000X-0.600000X0.750000X0.600000X0*%
%ADD26RoundRect,0.100000X0.217500X0.100000X-0.217500X0.100000X-0.217500X-0.100000X0.217500X-0.100000X0*%
%ADD27RoundRect,0.102000X1.500000X0.800000X-1.500000X0.800000X-1.500000X-0.800000X1.500000X-0.800000X0*%
%ADD28RoundRect,0.102000X3.350000X3.350000X-3.350000X3.350000X-3.350000X-3.350000X3.350000X-3.350000X0*%
%ADD29RoundRect,0.237500X0.287500X0.237500X-0.287500X0.237500X-0.287500X-0.237500X0.287500X-0.237500X0*%
%ADD30RoundRect,0.100000X-0.217500X-0.100000X0.217500X-0.100000X0.217500X0.100000X-0.217500X0.100000X0*%
%ADD31RoundRect,0.237500X-0.287500X-0.237500X0.287500X-0.237500X0.287500X0.237500X-0.287500X0.237500X0*%
%ADD32RoundRect,0.237500X0.250000X0.237500X-0.250000X0.237500X-0.250000X-0.237500X0.250000X-0.237500X0*%
%ADD33R,5.100000X2.150000*%
%ADD34RoundRect,0.237500X0.300000X0.237500X-0.300000X0.237500X-0.300000X-0.237500X0.300000X-0.237500X0*%
%ADD35R,3.200000X2.250000*%
%ADD36RoundRect,0.152000X-0.730000X-0.150000X0.730000X-0.150000X0.730000X0.150000X-0.730000X0.150000X0*%
%ADD37R,2.150000X5.100000*%
%ADD38R,1.500000X2.200000*%
%ADD39RoundRect,0.102000X-1.206500X-1.651000X1.206500X-1.651000X1.206500X1.651000X-1.206500X1.651000X0*%
%ADD40RoundRect,0.177000X-0.910000X-0.225000X0.910000X-0.225000X0.910000X0.225000X-0.910000X0.225000X0*%
%ADD41R,1.900000X1.300000*%
%ADD42R,1.900000X2.000000*%
%ADD43RoundRect,0.237500X-0.237500X0.250000X-0.237500X-0.250000X0.237500X-0.250000X0.237500X0.250000X0*%
%ADD44RoundRect,0.100000X-0.100000X0.217500X-0.100000X-0.217500X0.100000X-0.217500X0.100000X0.217500X0*%
%ADD45RoundRect,0.237500X0.237500X-0.300000X0.237500X0.300000X-0.237500X0.300000X-0.237500X-0.300000X0*%
G04 APERTURE END LIST*
D10*
%TO.C,U4*%
X56685000Y-68620000D03*
X56685000Y-69570000D03*
X56685000Y-70520000D03*
X59195000Y-70520000D03*
X59195000Y-69570000D03*
X59195000Y-68620000D03*
%TD*%
D11*
%TO.C,R2*%
X69017500Y-81440000D03*
X70842500Y-81440000D03*
%TD*%
%TO.C,R1*%
X62812500Y-78360000D03*
X60987500Y-78360000D03*
%TD*%
D12*
%TO.C,J9*%
X60615000Y-80355000D03*
D13*
X62635000Y-80355000D03*
D14*
X63865000Y-80355000D03*
D12*
X61615000Y-80355000D03*
D13*
X59595000Y-80355000D03*
D14*
X58365000Y-80355000D03*
D15*
X55990000Y-80410000D03*
D16*
X66240000Y-83990000D03*
X55990000Y-83990000D03*
D15*
X66240000Y-80410000D03*
%TD*%
D17*
%TO.C,VR1*%
X67980000Y-45640000D03*
X67980000Y-47340000D03*
X67980000Y-49040000D03*
X67980000Y-50740000D03*
X67980000Y-52440000D03*
D18*
X77610000Y-49040000D03*
%TD*%
D19*
%TO.C,U1*%
X56040000Y-34350000D03*
X50960000Y-35620000D03*
X56040000Y-36890000D03*
X50960000Y-38160000D03*
X56040000Y-39430000D03*
X50960000Y-40700000D03*
X56040000Y-41970000D03*
X50960000Y-43240000D03*
X56040000Y-44510000D03*
X50960000Y-45780000D03*
X56040000Y-47050000D03*
X50960000Y-48320000D03*
X56040000Y-49590000D03*
X50960000Y-50860000D03*
D20*
X56040000Y-52130000D03*
%TD*%
D21*
%TO.C,J11*%
X41310000Y-55780000D03*
%TD*%
%TO.C,J10*%
X41320000Y-53590000D03*
%TD*%
%TO.C,J8*%
X44850000Y-40830000D03*
%TD*%
%TO.C,J7*%
X44850000Y-43020000D03*
%TD*%
%TO.C,J6*%
X44850000Y-45270000D03*
%TD*%
%TO.C,J5*%
X44790000Y-49950000D03*
%TD*%
%TO.C,J3*%
X44820000Y-47570000D03*
%TD*%
D22*
%TO.C,J2*%
X39350000Y-44080000D03*
X39350000Y-45080000D03*
X39350000Y-46080000D03*
D23*
X39350000Y-47080000D03*
%TD*%
D24*
%TO.C,J4*%
X80907500Y-60970000D03*
D25*
X80907500Y-58470000D03*
%TD*%
D26*
%TO.C,C5*%
X53347500Y-59990000D03*
X52532500Y-59990000D03*
%TD*%
D27*
%TO.C,U2*%
X68290000Y-42370000D03*
D28*
X61640000Y-40070000D03*
D27*
X68290000Y-37770000D03*
%TD*%
D29*
%TO.C,D3*%
X54097500Y-30123750D03*
X55847500Y-30123750D03*
%TD*%
D30*
%TO.C,C9*%
X64832500Y-77160000D03*
X65647500Y-77160000D03*
%TD*%
D31*
%TO.C,D4*%
X54100000Y-31893750D03*
X55850000Y-31893750D03*
%TD*%
D32*
%TO.C,R6*%
X63897500Y-73870000D03*
X65722500Y-73870000D03*
%TD*%
D11*
%TO.C,R3*%
X71267500Y-56620000D03*
X73092500Y-56620000D03*
%TD*%
D31*
%TO.C,D1*%
X51877500Y-30190000D03*
X50127500Y-30190000D03*
%TD*%
D33*
%TO.C,C4*%
X66440000Y-65300000D03*
X75040000Y-65300000D03*
%TD*%
D34*
%TO.C,C2*%
X50320000Y-58320000D03*
X48595000Y-58320000D03*
%TD*%
D31*
%TO.C,D8*%
X47400000Y-56460000D03*
X49150000Y-56460000D03*
%TD*%
D30*
%TO.C,D10*%
X69297500Y-75500000D03*
X68482500Y-75500000D03*
%TD*%
D35*
%TO.C,D9*%
X61650000Y-52450000D03*
X61650000Y-45550000D03*
%TD*%
D11*
%TO.C,R8*%
X63860000Y-72070000D03*
X65685000Y-72070000D03*
%TD*%
D29*
%TO.C,D2*%
X50100000Y-31940000D03*
X51850000Y-31940000D03*
%TD*%
D36*
%TO.C,Q1*%
X55370000Y-64815000D03*
X55370000Y-65465000D03*
X55370000Y-66115000D03*
X55370000Y-66765000D03*
X61130000Y-66765000D03*
X61130000Y-66115000D03*
X61130000Y-65465000D03*
X61130000Y-64815000D03*
%TD*%
D29*
%TO.C,D6*%
X51215000Y-56390000D03*
X52965000Y-56390000D03*
%TD*%
D37*
%TO.C,C7*%
X46930000Y-63790000D03*
X46930000Y-72390000D03*
%TD*%
D11*
%TO.C,R9*%
X58485000Y-35360000D03*
X60310000Y-35360000D03*
%TD*%
D38*
%TO.C,L1*%
X61490000Y-59920000D03*
X55090000Y-59920000D03*
%TD*%
D39*
%TO.C,U3*%
X58920000Y-74495000D03*
D40*
X61395000Y-72590000D03*
X61395000Y-73860000D03*
X61395000Y-75130000D03*
X61395000Y-76400000D03*
X56445000Y-76400000D03*
X56445000Y-75130000D03*
X56445000Y-73860000D03*
X56445000Y-72590000D03*
%TD*%
D32*
%TO.C,R_PROG1*%
X52510000Y-76540000D03*
X54335000Y-76540000D03*
%TD*%
D41*
%TO.C,R4*%
X63990000Y-57770000D03*
D42*
X69090000Y-56620000D03*
D41*
X63990000Y-55470000D03*
%TD*%
D30*
%TO.C,D11*%
X69300000Y-73900000D03*
X68485000Y-73900000D03*
%TD*%
D43*
%TO.C,R7*%
X54860000Y-70472500D03*
X54860000Y-68647500D03*
%TD*%
D29*
%TO.C,D7*%
X47402500Y-54660000D03*
X49152500Y-54660000D03*
%TD*%
D44*
%TO.C,D17*%
X65250000Y-34387500D03*
X65250000Y-35202500D03*
%TD*%
D31*
%TO.C,D5*%
X52962500Y-54650000D03*
X51212500Y-54650000D03*
%TD*%
D45*
%TO.C,C10*%
X61140000Y-68717500D03*
X61140000Y-70442500D03*
%TD*%
D32*
%TO.C,R5*%
X63897500Y-75480000D03*
X65722500Y-75480000D03*
%TD*%
D26*
%TO.C,C8*%
X69087500Y-77580000D03*
X68272500Y-77580000D03*
%TD*%
D45*
%TO.C,C1*%
X58170000Y-31937500D03*
X58170000Y-33662500D03*
%TD*%
%TO.C,C6*%
X64210000Y-32702500D03*
X64210000Y-30977500D03*
%TD*%
M02*
