%TF.GenerationSoftware,KiCad,Pcbnew,7.0.5-0*%
%TF.CreationDate,2024-11-17T18:20:44-05:00*%
%TF.ProjectId,PCB_design,5043425f-6465-4736-9967-6e2e6b696361,rev?*%
%TF.SameCoordinates,Original*%
%TF.FileFunction,Soldermask,Top*%
%TF.FilePolarity,Negative*%
%FSLAX46Y46*%
G04 Gerber Fmt 4.6, Leading zero omitted, Abs format (unit mm)*
G04 Created by KiCad (PCBNEW 7.0.5-0) date 2024-11-17 18:20:44*
%MOMM*%
%LPD*%
G01*
G04 APERTURE LIST*
G04 Aperture macros list*
%AMRoundRect*
0 Rectangle with rounded corners*
0 $1 Rounding radius*
0 $2 $3 $4 $5 $6 $7 $8 $9 X,Y pos of 4 corners*
0 Add a 4 corners polygon primitive as box body*
4,1,4,$2,$3,$4,$5,$6,$7,$8,$9,$2,$3,0*
0 Add four circle primitives for the rounded corners*
1,1,$1+$1,$2,$3*
1,1,$1+$1,$4,$5*
1,1,$1+$1,$6,$7*
1,1,$1+$1,$8,$9*
0 Add four rect primitives between the rounded corners*
20,1,$1+$1,$2,$3,$4,$5,0*
20,1,$1+$1,$4,$5,$6,$7,0*
20,1,$1+$1,$6,$7,$8,$9,0*
20,1,$1+$1,$8,$9,$2,$3,0*%
G04 Aperture macros list end*
%ADD10RoundRect,0.250000X-0.325000X-0.450000X0.325000X-0.450000X0.325000X0.450000X-0.325000X0.450000X0*%
%ADD11RoundRect,0.250000X0.325000X0.450000X-0.325000X0.450000X-0.325000X-0.450000X0.325000X-0.450000X0*%
%ADD12RoundRect,0.100000X0.217500X0.100000X-0.217500X0.100000X-0.217500X-0.100000X0.217500X-0.100000X0*%
%ADD13RoundRect,0.102000X1.500000X0.800000X-1.500000X0.800000X-1.500000X-0.800000X1.500000X-0.800000X0*%
%ADD14RoundRect,0.102000X3.350000X3.350000X-3.350000X3.350000X-3.350000X-3.350000X3.350000X-3.350000X0*%
%ADD15R,1.000000X1.000000*%
%ADD16RoundRect,0.237500X-0.300000X-0.237500X0.300000X-0.237500X0.300000X0.237500X-0.300000X0.237500X0*%
%ADD17RoundRect,0.237500X0.250000X0.237500X-0.250000X0.237500X-0.250000X-0.237500X0.250000X-0.237500X0*%
%ADD18RoundRect,0.237500X-0.250000X-0.237500X0.250000X-0.237500X0.250000X0.237500X-0.250000X0.237500X0*%
%ADD19R,0.700000X1.200000*%
%ADD20R,0.760000X1.200000*%
%ADD21R,0.800000X1.200000*%
%ADD22R,1.800000X1.350000*%
%ADD23R,1.800000X1.500000*%
%ADD24RoundRect,0.102000X0.810000X0.810000X-0.810000X0.810000X-0.810000X-0.810000X0.810000X-0.810000X0*%
%ADD25C,1.824000*%
%ADD26R,5.100000X2.150000*%
%ADD27RoundRect,0.237500X0.300000X0.237500X-0.300000X0.237500X-0.300000X-0.237500X0.300000X-0.237500X0*%
%ADD28R,0.850000X0.850000*%
%ADD29O,0.850000X0.850000*%
%ADD30RoundRect,0.100000X-0.217500X-0.100000X0.217500X-0.100000X0.217500X0.100000X-0.217500X0.100000X0*%
%ADD31RoundRect,0.102000X-1.605000X-0.525000X1.605000X-0.525000X1.605000X0.525000X-1.605000X0.525000X0*%
%ADD32RoundRect,0.102000X-4.230000X-5.265000X4.230000X-5.265000X4.230000X5.265000X-4.230000X5.265000X0*%
%ADD33R,3.200000X2.250000*%
%ADD34RoundRect,0.152000X-0.730000X-0.150000X0.730000X-0.150000X0.730000X0.150000X-0.730000X0.150000X0*%
%ADD35R,2.150000X5.100000*%
%ADD36RoundRect,0.250000X-0.750000X0.600000X-0.750000X-0.600000X0.750000X-0.600000X0.750000X0.600000X0*%
%ADD37O,2.000000X1.700000*%
%ADD38R,1.500000X2.200000*%
%ADD39RoundRect,0.177000X-0.910000X-0.225000X0.910000X-0.225000X0.910000X0.225000X-0.910000X0.225000X0*%
%ADD40RoundRect,0.102000X-1.206500X-1.651000X1.206500X-1.651000X1.206500X1.651000X-1.206500X1.651000X0*%
%ADD41R,1.900000X1.300000*%
%ADD42R,1.900000X2.000000*%
%ADD43RoundRect,0.237500X-0.237500X0.250000X-0.237500X-0.250000X0.237500X-0.250000X0.237500X0.250000X0*%
%ADD44RoundRect,0.102000X-0.605000X-0.295000X0.605000X-0.295000X0.605000X0.295000X-0.605000X0.295000X0*%
%ADD45RoundRect,0.100000X-0.100000X0.217500X-0.100000X-0.217500X0.100000X-0.217500X0.100000X0.217500X0*%
%ADD46RoundRect,0.237500X0.237500X-0.300000X0.237500X0.300000X-0.237500X0.300000X-0.237500X-0.300000X0*%
G04 APERTURE END LIST*
D10*
%TO.C,D5*%
X92297500Y-64230000D03*
X94347500Y-64230000D03*
%TD*%
%TO.C,D8*%
X88197500Y-66870000D03*
X90247500Y-66870000D03*
%TD*%
D11*
%TO.C,D7*%
X90132500Y-64240000D03*
X88082500Y-64240000D03*
%TD*%
%TO.C,D6*%
X94310000Y-66780000D03*
X92260000Y-66780000D03*
%TD*%
D10*
%TO.C,D4*%
X94945000Y-41308750D03*
X96995000Y-41308750D03*
%TD*%
D11*
%TO.C,D3*%
X96992500Y-39538750D03*
X94942500Y-39538750D03*
%TD*%
%TO.C,D2*%
X92995000Y-41355000D03*
X90945000Y-41355000D03*
%TD*%
D10*
%TO.C,D1*%
X90972500Y-39605000D03*
X93022500Y-39605000D03*
%TD*%
D12*
%TO.C,C5*%
X94342500Y-69405000D03*
X93527500Y-69405000D03*
%TD*%
D13*
%TO.C,U2*%
X109285000Y-51785000D03*
D14*
X102635000Y-49485000D03*
D13*
X109285000Y-47185000D03*
%TD*%
D15*
%TO.C,J3*%
X85815000Y-56985000D03*
%TD*%
D16*
%TO.C,C9*%
X112127500Y-83320000D03*
X113852500Y-83320000D03*
%TD*%
D17*
%TO.C,R6*%
X106717500Y-83285000D03*
X104892500Y-83285000D03*
%TD*%
D18*
%TO.C,R3*%
X112262500Y-66035000D03*
X114087500Y-66035000D03*
%TD*%
D19*
%TO.C,J9*%
X101610000Y-89770000D03*
D20*
X103630000Y-89770000D03*
D21*
X104860000Y-89770000D03*
D19*
X102610000Y-89770000D03*
D20*
X100590000Y-89770000D03*
D21*
X99360000Y-89770000D03*
D22*
X96985000Y-89825000D03*
D23*
X96985000Y-93405000D03*
D22*
X107235000Y-89825000D03*
D23*
X107235000Y-93405000D03*
%TD*%
D18*
%TO.C,R1*%
X101982500Y-87775000D03*
X103807500Y-87775000D03*
%TD*%
D24*
%TO.C,U1*%
X97035000Y-61545000D03*
D25*
X91955000Y-60275000D03*
X97035000Y-59005000D03*
X91955000Y-57735000D03*
X97035000Y-56465000D03*
X91955000Y-55195000D03*
X97035000Y-53925000D03*
X91955000Y-52655000D03*
X97035000Y-51385000D03*
X91955000Y-50115000D03*
X97035000Y-48845000D03*
X91955000Y-47575000D03*
X97035000Y-46305000D03*
X91955000Y-45035000D03*
X97035000Y-43765000D03*
%TD*%
D26*
%TO.C,C4*%
X107435000Y-74715000D03*
X116035000Y-74715000D03*
%TD*%
D27*
%TO.C,C2*%
X90282500Y-68930000D03*
X88557500Y-68930000D03*
%TD*%
D28*
%TO.C,J2*%
X80345000Y-56495000D03*
D29*
X80345000Y-55495000D03*
X80345000Y-54495000D03*
X80345000Y-53495000D03*
%TD*%
D30*
%TO.C,D10*%
X109477500Y-84915000D03*
X110292500Y-84915000D03*
%TD*%
D31*
%TO.C,VR1*%
X108975000Y-55055000D03*
X108975000Y-56755000D03*
X108975000Y-58455000D03*
X108975000Y-60155000D03*
X108975000Y-61855000D03*
D32*
X118605000Y-58455000D03*
%TD*%
D33*
%TO.C,D9*%
X102645000Y-54965000D03*
X102645000Y-61865000D03*
%TD*%
D18*
%TO.C,R8*%
X104855000Y-81485000D03*
X106680000Y-81485000D03*
%TD*%
D15*
%TO.C,J10*%
X82315000Y-63005000D03*
%TD*%
D34*
%TO.C,Q1*%
X96365000Y-74230000D03*
X96365000Y-74880000D03*
X96365000Y-75530000D03*
X96365000Y-76180000D03*
X102125000Y-76180000D03*
X102125000Y-75530000D03*
X102125000Y-74880000D03*
X102125000Y-74230000D03*
%TD*%
D35*
%TO.C,C7*%
X87925000Y-73205000D03*
X87925000Y-81805000D03*
%TD*%
D36*
%TO.C,J4*%
X121902500Y-67885000D03*
D37*
X121902500Y-70385000D03*
%TD*%
D18*
%TO.C,R9*%
X99480000Y-44775000D03*
X101305000Y-44775000D03*
%TD*%
D38*
%TO.C,L1*%
X96085000Y-69335000D03*
X102485000Y-69335000D03*
%TD*%
D15*
%TO.C,J11*%
X82305000Y-65195000D03*
%TD*%
D39*
%TO.C,U3*%
X97440000Y-82005000D03*
X97440000Y-83275000D03*
X97440000Y-84545000D03*
X97440000Y-85815000D03*
X102390000Y-85815000D03*
X102390000Y-84545000D03*
X102390000Y-83275000D03*
X102390000Y-82005000D03*
D40*
X99915000Y-83910000D03*
%TD*%
D17*
%TO.C,R_PROG1*%
X95330000Y-85955000D03*
X93505000Y-85955000D03*
%TD*%
D41*
%TO.C,R4*%
X104985000Y-64885000D03*
D42*
X110085000Y-66035000D03*
D41*
X104985000Y-67185000D03*
%TD*%
D30*
%TO.C,D11*%
X109480000Y-83315000D03*
X110295000Y-83315000D03*
%TD*%
D43*
%TO.C,R7*%
X95855000Y-78062500D03*
X95855000Y-79887500D03*
%TD*%
D44*
%TO.C,U4*%
X97680000Y-78035000D03*
X97680000Y-78985000D03*
X97680000Y-79935000D03*
X100190000Y-79935000D03*
X100190000Y-78985000D03*
X100190000Y-78035000D03*
%TD*%
D45*
%TO.C,D17*%
X106245000Y-43802500D03*
X106245000Y-44617500D03*
%TD*%
D15*
%TO.C,J6*%
X85845000Y-54685000D03*
%TD*%
D18*
%TO.C,R2*%
X110012500Y-90855000D03*
X111837500Y-90855000D03*
%TD*%
D15*
%TO.C,J5*%
X85785000Y-59365000D03*
%TD*%
D46*
%TO.C,C10*%
X102135000Y-79857500D03*
X102135000Y-78132500D03*
%TD*%
D15*
%TO.C,J7*%
X85845000Y-52435000D03*
%TD*%
%TO.C,J8*%
X85845000Y-50245000D03*
%TD*%
D17*
%TO.C,R5*%
X106717500Y-84895000D03*
X104892500Y-84895000D03*
%TD*%
D27*
%TO.C,C8*%
X110292500Y-87540000D03*
X108567500Y-87540000D03*
%TD*%
D46*
%TO.C,C1*%
X99165000Y-43077500D03*
X99165000Y-41352500D03*
%TD*%
%TO.C,C6*%
X105205000Y-42117500D03*
X105205000Y-40392500D03*
%TD*%
M02*
